<svg width="86" height="28" viewBox="0 0 86 28" fill="none" xmlns="http://www.w3.org/2000/svg">
<rect width="85.6471" height="28" rx="4" fill="white"/>
<path fill-rule="evenodd" clip-rule="evenodd" d="M29.9301 16.7932C29.3772 16.7947 28.8363 16.632 28.3759 16.3259C27.9155 16.0197 27.5562 15.5838 27.3437 15.0733C27.1311 14.5629 27.0747 14.0008 27.1817 13.4583C27.2887 12.9158 27.5542 12.4172 27.9446 12.0257C28.335 11.6342 28.8328 11.3673 29.375 11.2589C29.9171 11.1505 30.4793 11.2054 30.9901 11.4167C31.5011 11.6279 31.9379 11.9861 32.2453 12.4458C32.5525 12.9054 32.7166 13.446 32.7166 13.9989C32.7171 14.7389 32.4238 15.4488 31.9013 15.9728C31.379 16.4967 30.6699 16.7918 29.9301 16.7932ZM29.9301 8.23439C28.9605 8.23223 28.006 8.47475 27.155 8.93948C26.304 9.40422 25.584 10.0762 25.0617 10.8931C24.5393 11.7101 24.2314 12.6456 24.1665 13.6132C24.1016 14.5807 24.2818 15.549 24.6904 16.4284C25.099 17.3079 25.7229 18.0699 26.5041 18.6442C27.2855 19.2184 28.199 19.5863 29.1602 19.7137C30.1213 19.841 31.099 19.7238 32.0031 19.3729C32.9069 19.022 33.7075 18.4487 34.3311 17.7061C33.9503 18.4141 33.3998 19.0074 32.7622 19.3803V19.6779H35.6793V13.969C35.6725 12.4475 35.0639 10.9906 33.9868 9.91617C32.9096 8.84177 31.4513 8.23719 29.9301 8.23439ZM57.5928 16.8494H53.7985V14.9785H57.521C57.9864 14.9785 58.5294 15.4163 58.5294 15.914C58.5294 16.275 58.2472 16.8494 57.5928 16.8494ZM53.7985 11.1532L56.9853 11.1518C57.3307 11.1518 57.9012 11.5086 57.9012 12.0792C57.9012 12.5345 57.5318 13.0243 56.8895 13.0243H53.7985V11.1532ZM60.1849 13.6541C60.8768 12.602 60.9405 11.1643 60.3083 10.0888C59.9952 9.55677 59.5496 9.11501 59.015 8.8066C58.4802 8.49819 57.8747 8.33366 57.2575 8.32908L50.8812 8.32841V19.6779L58.0159 19.6733C60.2539 19.6733 61.503 17.8259 61.503 16.2758C61.503 14.7843 60.6549 14.0364 60.1849 13.6541ZM47.9962 12.5107C48.9536 15.0944 49.0025 17.4385 49.0025 19.6781H46.041C46.041 17.8614 45.9773 16.2072 45.5972 14.7118C45.0876 12.7072 44.1389 11.25 43.2572 11.2499C42.3755 11.2498 41.4261 12.7072 40.9165 14.7118C40.5363 16.2072 40.4734 17.8183 40.4734 19.6781H37.5119C37.5119 17.6399 37.56 15.0944 38.5176 12.5107C39.4099 10.1037 41.0774 8.23459 43.2572 8.23459C45.437 8.23459 47.1038 10.1037 47.9962 12.5107ZM20.0659 8.32827H23.0281V9.52381C23.0289 10.3821 22.838 11.2298 22.4692 12.0048C22.1004 12.7799 21.5631 13.4627 20.8966 14.0033C21.5631 14.544 22.1004 15.2268 22.4692 16.0019C22.838 16.777 23.0289 17.6246 23.0281 18.4829V19.6785H20.0659V18.1835C20.0659 17.4442 19.7723 16.7353 19.2496 16.2126C18.727 15.6899 18.0181 15.3962 17.279 15.3962C16.5399 15.3962 15.8311 15.6899 15.3084 16.2126C14.7858 16.7353 14.4922 17.4442 14.4922 18.1835V19.6779H11.5293V18.4824C11.5286 17.624 11.7196 16.7763 12.0885 16.0013C12.4574 15.2263 12.9948 14.5434 13.6614 14.0028C12.9948 13.4622 12.4574 12.7794 12.0885 12.0044C11.7196 11.2294 11.5285 10.3817 11.5293 9.52327V8.32807H14.4922V9.82249C14.4922 10.5617 14.7858 11.2707 15.3084 11.7934C15.8311 12.3161 16.5399 12.6098 17.279 12.6098C18.0181 12.6098 18.727 12.3161 19.2496 11.7934C19.7723 11.2707 20.0659 10.5617 20.0659 9.82249V8.32827ZM68.3681 16.7934C67.8152 16.7949 67.2743 16.6322 66.814 16.3261C66.3535 16.0199 65.9944 15.584 65.7818 15.0736C65.5693 14.5631 65.5128 14.001 65.6198 13.4585C65.7267 12.916 65.9923 12.4174 66.3827 12.0259C66.7731 11.6344 67.2709 11.3675 67.8131 11.2591C68.3553 11.1507 68.9173 11.2056 69.428 11.4169C69.939 11.6281 70.376 11.9863 70.6832 12.446C70.9904 12.9056 71.1546 13.4462 71.1546 13.9991C71.1552 14.7391 70.8618 15.4491 70.3398 15.9731C69.8173 16.497 69.1082 16.7921 68.3681 16.7934ZM74.117 13.9692C74.1089 12.6164 73.6249 11.3094 72.7504 10.2775C71.8753 9.24564 70.6654 8.55458 69.3327 8.3255C67.9994 8.09641 66.6281 8.34392 65.459 9.02463C64.2901 9.70534 63.398 10.7758 62.9391 12.0485C62.4801 13.3211 62.4837 14.7147 62.949 15.985C63.4144 17.2553 64.3119 18.3213 65.4843 18.996C66.6567 19.6708 68.0291 19.9114 69.3614 19.6756C70.693 19.4397 71.9 18.7426 72.7693 17.7062C72.3886 18.4143 71.8379 19.0077 71.2 19.3805V19.6781H74.1175V13.969L74.117 13.9692Z" fill="black"/>
</svg>
