<svg width="56" height="28" viewBox="0 0 56 28" fill="none" xmlns="http://www.w3.org/2000/svg">
<rect width="56" height="28" rx="6.58824" fill="white"/>
<path d="M32.4437 6.29688H23.5293V22.3125H32.4437V6.29688Z" fill="#FF5A00"/>
<path d="M24.1229 14.3042C24.1229 11.0503 25.6526 8.1623 27.9999 6.29634C26.2724 4.93808 24.0932 4.11719 21.7163 4.11719C16.0854 4.11719 11.5293 8.6733 11.5293 14.3042C11.5293 19.935 16.0854 24.4911 21.7163 24.4911C24.0932 24.4911 26.2724 23.6702 27.9999 22.312C25.6493 20.4724 24.1229 17.5581 24.1229 14.3042Z" fill="#EB001B"/>
<path d="M44.4706 14.3042C44.4706 19.935 39.9145 24.4911 34.2836 24.4911C31.9067 24.4911 29.7275 23.6702 28 22.312C30.377 20.4427 31.877 17.5581 31.877 14.3042C31.877 11.0503 30.3473 8.1623 28 6.29634C29.7242 4.93808 31.9034 4.11719 34.2803 4.11719C39.9145 4.11719 44.4706 8.70297 44.4706 14.3042Z" fill="#F79E1B"/>
</svg>
