<svg width="56" height="28" fill="none" xmlns="http://www.w3.org/2000/svg"><rect width="56" height="28" rx="6.588" fill="#fff"/><path fill-rule="evenodd" clip-rule="evenodd" d="M12.043 8.236c.368-.002 1.461-.1 1.924 1.463a562.76 562.76 0 0 1 1.491 5.173h.278c.731-2.526 1.233-4.25 1.507-5.173.468-1.58 1.637-1.463 2.105-1.463h3.61v11.23h-3.68v-6.618h-.246l-2.051 6.618h-2.768l-2.051-6.623h-.247v6.623h-3.68V8.236h3.808Zm16.2 0v6.623h.293l2.495-5.446c.484-1.084 1.516-1.177 1.516-1.177h3.56v11.23h-3.755v-6.623h-.294l-2.446 5.446c-.484 1.08-1.566 1.177-1.566 1.177h-3.56V8.236h3.756Zm20.848 5.337c-.524 1.485-2.17 2.548-3.99 2.548h-3.94v3.345h-3.572v-5.893H49.09Z" fill="#0F754E"/><path fill-rule="evenodd" clip-rule="evenodd" d="M45.273 8.236h-7.87c.187 2.5 2.34 4.64 4.569 4.64h7.368c.426-2.077-1.038-4.64-4.067-4.64Z" fill="url(#a)"/><defs><linearGradient id="a" x1="49.413" y1="11.155" x2="37.402" y2="11.155" gradientUnits="userSpaceOnUse"><stop stop-color="#1F5CD7"/><stop offset="1" stop-color="#02AEFF"/></linearGradient></defs></svg>