<svg width="56" height="28" viewBox="0 0 56 28" fill="none" xmlns="http://www.w3.org/2000/svg">
<rect width="56" height="28" rx="6.58824" fill="white"/>
<path d="M28.725 11.7602C28.725 13.6357 30.3448 14.6588 31.6235 15.2555C32.9023 15.8523 33.3286 16.2785 33.3286 16.8753C33.3286 17.7278 32.3055 18.1541 31.3678 18.1541C29.6627 18.1541 28.725 17.7278 27.9577 17.3016L27.361 20.1149C28.1282 20.4559 29.5775 20.7969 31.0268 20.7969C34.5221 20.7969 36.8239 19.0918 36.8239 16.3638C36.8239 12.9537 32.135 12.7832 32.135 11.2487C32.135 10.8224 32.5613 10.3109 33.5843 10.1404C34.0958 10.0552 35.3746 10.0552 36.9091 10.7372L37.5059 8.00915C36.7386 7.7534 35.6303 7.41239 34.3516 7.41239C31.112 7.49764 28.725 9.28792 28.725 11.7602ZM43.1325 7.75339C42.4505 7.75339 41.939 8.0944 41.6832 8.69116L36.6534 20.6264H40.1487L40.8307 18.6656H45.0933L45.5195 20.6264H48.5886L45.9458 7.75339H43.1325ZM43.644 11.2487L44.667 16.108H41.939L43.644 11.2487ZM24.4624 7.75339L21.7344 20.6264H25.0592L27.7872 7.75339H24.4624ZM19.6031 7.75339L16.1077 16.5343L14.7437 9.03217C14.5732 8.17965 13.8912 7.75339 13.2092 7.75339H7.49734L7.41211 8.0944C8.60563 8.35016 9.8844 8.77641 10.7369 9.20267C11.2484 9.45842 11.3337 9.71418 11.5042 10.3109L14.147 20.6264H17.6423L23.0131 7.75339H19.6031Z" fill="#1A1F71"/>
</svg>
