<?xml version="1.0" standalone="no"?>
<!DOCTYPE svg PUBLIC "-//W3C//DTD SVG 20010904//EN"
 "http://www.w3.org/TR/2001/REC-SVG-20010904/DTD/svg10.dtd">
<svg version="1.0" xmlns="http://www.w3.org/2000/svg"
 width="512.000000pt" height="512.000000pt" viewBox="0 0 512.000000 512.000000"
 preserveAspectRatio="xMidYMid meet">

<g transform="translate(0.000000,512.000000) scale(0.100000,-0.100000)"
fill="#fc8b06" stroke="none">
<path d="M358 4896 c-121 -33 -208 -148 -207 -276 0 -36 6 -82 13 -103 28 -78
112 -157 188 -177 l38 -11 0 -2012 c0 -1589 3 -2017 13 -2037 23 -46 73 -70
146 -70 82 0 129 22 153 70 17 33 18 151 18 2043 l0 2007 227 -2 227 -3 35
-111 c64 -196 76 -203 326 -204 158 0 174 2 215 23 59 30 74 53 114 182 l34
110 148 0 149 0 40 -117 c44 -129 74 -171 134 -188 47 -13 335 -13 381 0 62
17 95 63 137 190 l38 115 148 0 148 0 39 -118 c61 -188 76 -197 325 -197 250
0 262 8 326 204 l35 111 227 3 227 2 0 -2007 c0 -1892 1 -2010 18 -2043 23
-48 71 -70 150 -70 70 0 109 16 141 56 l21 27 0 2018 0 2018 38 11 c76 20 160
99 188 177 7 21 13 67 13 103 1 112 -65 216 -168 264 l-46 21 -2175 2 c-1728
1 -2185 -1 -2222 -11z m4387 -150 c38 -16 72 -63 81 -113 10 -51 -27 -117 -80
-142 l-42 -21 -2144 0 -2144 0 -42 21 c-53 25 -90 91 -80 142 9 49 43 97 79
112 49 22 4321 22 4372 1z"/>
<path d="M1465 3933 c-59 -81 -115 -200 -115 -244 0 -90 65 -159 157 -167 64
-5 103 9 143 54 42 49 53 99 35 161 -15 49 -116 221 -138 235 -26 17 -48 6
-82 -39z"/>
<path d="M3556 3949 c-30 -36 -91 -137 -111 -186 -49 -118 26 -243 147 -243
101 0 168 58 176 153 3 45 -1 62 -37 132 -53 104 -106 175 -130 175 -11 0 -31
-14 -45 -31z"/>
<path d="M2491 3903 c-17 -20 -51 -77 -77 -127 -41 -82 -46 -96 -42 -144 5
-56 25 -91 72 -126 39 -30 153 -30 192 0 47 35 67 70 72 126 4 48 -1 62 -42
144 -54 104 -100 164 -126 164 -10 0 -32 -17 -49 -37z"/>
<path d="M1846 3447 c-34 -36 -112 -177 -126 -229 -30 -104 86 -226 193 -202
109 23 165 110 138 214 -12 47 -91 185 -128 226 -29 32 -40 30 -77 -9z"/>
<path d="M3079 3473 c-35 -8 -159 -232 -159 -288 0 -44 40 -116 77 -141 64
-42 148 -39 208 8 30 23 64 90 65 125 0 38 -39 129 -90 207 -49 75 -72 96
-101 89z"/>
<path d="M2190 2824 c-19 -2 -98 -9 -175 -15 -293 -23 -382 -54 -500 -173 -79
-79 -128 -164 -181 -311 -29 -82 -34 -90 -56 -86 -12 2 -95 5 -183 7 -147 4
-163 3 -193 -16 -60 -37 -72 -70 -72 -203 0 -138 12 -174 68 -209 30 -18 55
-23 135 -26 l97 -4 -20 -32 c-44 -66 -82 -151 -101 -224 -22 -85 -25 -315 -12
-921 l6 -325 33 -35 32 -36 257 0 257 0 34 37 34 38 0 195 0 195 908 -2 907
-3 5 -195 c3 -126 9 -202 17 -216 7 -12 28 -29 48 -38 30 -15 67 -17 275 -14
l240 3 32 33 33 32 6 288 c4 158 7 424 8 592 1 278 -1 312 -19 378 -20 72 -58
155 -101 220 l-21 32 89 0 c72 0 97 4 133 23 67 34 80 68 80 212 0 135 -12
168 -72 205 -30 19 -46 20 -193 16 -88 -2 -171 -5 -183 -7 -22 -4 -27 4 -56
86 -87 242 -208 381 -381 440 -60 20 -216 40 -417 55 -131 9 -709 12 -798 4z
m680 -144 c241 -13 431 -34 490 -55 65 -23 142 -78 179 -130 48 -67 107 -199
136 -306 14 -52 31 -105 38 -119 24 -48 77 -48 138 1 36 28 78 35 197 31 l102
-4 0 -79 0 -79 -175 0 c-173 0 -176 0 -200 -25 -41 -40 -33 -66 52 -160 69
-76 139 -216 153 -305 5 -36 10 -182 10 -325 0 -220 -2 -264 -16 -283 l-15
-22 -1399 0 -1399 0 -15 22 c-14 19 -16 63 -16 278 0 140 5 286 10 325 13 86
70 207 137 288 104 127 110 141 68 182 -24 25 -27 25 -200 25 l-176 0 3 83 3
82 120 0 c107 0 124 -3 155 -22 77 -49 94 -55 123 -44 31 12 36 23 72 150 29
107 88 239 136 306 37 51 114 107 178 130 138 48 705 76 1111 55z"/>
<path d="M2236 2580 c-246 -15 -408 -36 -464 -60 -59 -26 -120 -87 -155 -157
-57 -111 -127 -362 -127 -452 l0 -31 1070 0 1070 0 0 29 c0 49 -30 192 -62
291 -68 214 -141 303 -273 339 -127 33 -765 58 -1059 41z"/>
<path d="M1384 1646 c-45 -20 -75 -88 -76 -169 -2 -77 22 -131 73 -165 34 -24
35 -24 244 -17 116 4 217 9 226 11 16 4 39 44 39 68 0 8 -18 41 -40 74 -54 80
-121 125 -251 166 -133 43 -176 49 -215 32z"/>
<path d="M3715 1649 c-72 -17 -195 -58 -235 -79 -125 -64 -212 -213 -147 -254
16 -10 78 -16 238 -21 l216 -7 38 33 c21 19 44 48 51 66 29 68 8 198 -39 241
-28 25 -71 33 -122 21z"/>
<path d="M2093 1535 c-18 -13 -23 -26 -23 -61 0 -55 18 -91 64 -132 49 -43 91
-52 239 -52 164 0 167 2 167 128 0 133 11 126 -227 130 -169 2 -201 0 -220
-13z"/>
<path d="M2683 1535 c-21 -15 -23 -24 -23 -115 0 -133 -1 -133 187 -128 160 4
198 17 247 85 34 49 45 118 23 148 -14 19 -29 20 -214 23 -169 2 -201 0 -220
-13z"/>
<path d="M2117 1053 c-27 -26 20 -108 77 -134 37 -17 71 -19 370 -19 320 0
329 1 368 22 45 26 81 77 76 110 l-3 23 -441 3 c-242 1 -444 -1 -447 -5z"/>
</g>
</svg>
