<?xml version="1.0" standalone="no"?>
<!DOCTYPE svg PUBLIC "-//W3C//DTD SVG 20010904//EN"
 "http://www.w3.org/TR/2001/REC-SVG-20010904/DTD/svg10.dtd">
<svg version="1.0" xmlns="http://www.w3.org/2000/svg"
 width="512.000000pt" height="512.000000pt" viewBox="0 0 512.000000 512.000000"
 preserveAspectRatio="xMidYMid meet">

<g transform="translate(0.000000,512.000000) scale(0.100000,-0.100000)"
fill="#fc8b06" stroke="none">
<path d="M2420 5034 c-422 -53 -782 -275 -1002 -619 -92 -142 -162 -316 -195
-483 -24 -121 -24 -385 0 -504 84 -418 354 -775 727 -963 316 -159 696 -187
1031 -75 214 71 384 175 539 330 155 155 259 325 330 539 94 281 92 582 -6
863 -20 56 -51 131 -69 168 -187 372 -547 644 -958 726 -80 15 -326 27 -397
18z m378 -178 c239 -52 438 -160 608 -330 170 -170 275 -364 331 -608 23 -103
23 -375 0 -476 -113 -493 -474 -847 -962 -943 -40 -8 -132 -14 -215 -14 -83 0
-175 6 -215 14 -487 96 -857 459 -961 941 -26 118 -26 362 0 480 76 353 299
650 610 816 135 71 262 112 431 138 61 9 302 -3 373 -18z"/>
<path d="M2478 4528 l-3 -112 -84 95 c-47 52 -87 95 -90 96 -3 1 -32 -21 -63
-50 l-58 -52 150 -167 150 -167 0 -148 0 -148 -248 248 c-136 136 -252 247
-257 247 -13 0 -105 -92 -105 -105 0 -6 111 -121 247 -257 l248 -248 -165 0
-165 0 -145 145 c-80 80 -149 145 -155 145 -13 0 -105 -92 -105 -105 0 -5 39
-49 87 -97 l88 -88 -103 0 -102 0 0 -80 0 -80 102 0 103 0 -90 -90 -90 -90 58
-57 57 -58 148 148 147 147 165 0 165 0 -210 -210 -210 -210 58 -57 57 -58
210 210 210 210 0 -148 0 -148 -150 -167 -150 -167 58 -52 c31 -29 60 -51 63
-50 3 1 43 44 90 96 l84 95 3 -112 3 -112 79 0 79 0 3 112 3 112 84 -95 c47
-52 87 -95 90 -96 3 -1 32 21 63 50 l58 52 -150 167 -150 167 0 148 0 148 210
-210 210 -210 57 58 58 57 -210 210 -210 210 125 0 125 0 147 -147 148 -148
57 58 58 57 -90 90 -90 90 143 0 142 0 0 80 0 80 -142 0 -143 0 88 88 c48 48
87 92 87 98 0 13 -92 104 -105 104 -6 0 -75 -65 -155 -145 l-145 -145 -125 0
-125 0 248 248 c136 136 247 252 247 257 0 13 -92 105 -105 105 -6 0 -121
-111 -257 -247 l-248 -248 0 148 0 148 150 167 150 167 -57 52 c-32 29 -61 52
-64 50 -3 -1 -43 -44 -90 -96 l-84 -95 -3 112 -3 112 -79 0 -79 0 -3 -112z"/>
<path d="M1575 2146 c-187 -30 -369 -103 -522 -208 -43 -29 -165 -138 -273
-244 -176 -171 -202 -193 -263 -218 -205 -86 -357 -260 -414 -476 -28 -104
-23 -304 11 -460 31 -146 59 -200 130 -247 68 -47 102 -53 280 -53 l159 0 44
-41 c58 -53 156 -98 243 -112 134 -20 288 25 383 112 l44 41 1123 0 1123 0 44
-41 c95 -87 249 -132 383 -112 87 14 185 59 242 111 l43 40 185 4 c227 5 272
18 361 108 113 112 160 274 129 439 -41 219 -244 456 -484 566 -103 48 -151
59 -446 109 -264 45 -336 63 -420 106 -25 13 -203 123 -396 246 -373 238 -452
281 -579 316 -77 21 -98 22 -565 24 -357 2 -506 -1 -565 -10z m1110 -175 c108
-36 159 -65 517 -293 183 -117 365 -229 404 -248 110 -56 188 -76 473 -125
241 -40 361 -69 401 -95 12 -8 11 -10 -8 -10 -13 0 -35 -12 -49 -26 -24 -24
-25 -30 -20 -91 13 -138 96 -257 223 -319 63 -31 85 -37 163 -42 l91 -5 0 -38
0 -39 -120 0 -120 0 0 -80 0 -80 83 0 82 -1 -32 -29 c-43 -39 -89 -50 -214
-50 l-106 0 13 52 c59 225 -78 476 -304 561 -81 30 -243 30 -324 0 -227 -85
-363 -335 -304 -561 l13 -52 -1027 0 -1027 0 13 52 c59 225 -78 476 -304 561
-81 30 -243 30 -324 0 -227 -85 -363 -335 -304 -561 l13 -52 -106 0 c-113 0
-142 9 -172 50 -20 27 -54 176 -65 284 l-7 66 58 0 c88 0 133 18 190 75 63 62
75 101 75 239 0 116 -7 138 -46 159 -25 13 -25 14 55 50 44 20 86 37 92 37 7
0 105 92 218 204 260 257 371 332 575 391 142 41 184 44 681 42 473 -3 481 -3
550 -26z m-2285 -906 c0 -75 -28 -105 -95 -105 -53 0 -53 -1 -8 103 25 55 27
57 64 57 l39 0 0 -55z m4280 -59 c78 -14 91 -24 133 -96 l18 -30 -32 0 c-74 0
-151 43 -199 110 -25 35 -25 34 80 16z m-3505 -157 c63 -30 123 -90 155 -154
20 -41 25 -65 25 -135 -1 -77 -4 -91 -34 -148 -38 -70 -70 -101 -145 -140 -43
-22 -64 -26 -136 -26 -70 -1 -94 4 -135 24 -260 128 -238 495 35 594 63 23
170 16 235 -15z m2960 0 c63 -30 123 -90 155 -154 20 -41 25 -65 25 -135 -1
-77 -4 -91 -34 -148 -38 -70 -70 -101 -145 -140 -43 -22 -64 -26 -136 -26 -70
-1 -94 4 -135 24 -260 128 -238 495 35 594 63 23 170 16 235 -15z"/>
<path d="M1685 1671 c-124 -31 -224 -142 -242 -266 l-6 -45 81 0 80 0 6 35 c9
47 59 102 104 115 25 8 209 10 554 8 504 -3 517 -4 544 -24 64 -47 69 -63 69
-214 0 -151 -5 -167 -69 -214 -26 -20 -42 -21 -359 -24 l-332 -3 88 88 c48 49
87 93 87 99 0 13 -92 104 -106 104 -5 0 -85 -76 -177 -168 -150 -151 -167
-172 -167 -202 0 -30 17 -51 170 -204 l170 -171 57 57 58 58 -89 89 -89 90
344 3 344 3 51 27 c76 40 107 70 145 140 l34 63 0 165 0 165 -34 63 c-37 69
-79 109 -151 144 -45 23 -46 23 -590 25 -300 1 -558 -2 -575 -6z"/>
<path d="M960 787 c-49 -16 -133 -102 -148 -153 -28 -94 -8 -169 63 -239 70
-71 145 -91 239 -63 55 16 138 99 154 154 26 89 9 163 -55 234 -65 72 -158 97
-253 67z m135 -172 c50 -49 15 -135 -55 -135 -41 0 -80 39 -80 80 0 41 39 80
80 80 19 0 40 -9 55 -25z"/>
<path d="M3920 787 c-49 -16 -133 -102 -148 -153 -28 -94 -8 -169 63 -239 101
-102 229 -102 330 0 98 97 101 222 8 325 -65 72 -158 97 -253 67z m135 -172
c50 -49 15 -135 -55 -135 -41 0 -80 39 -80 80 0 41 39 80 80 80 19 0 40 -9 55
-25z"/>
</g>
</svg>
