<svg width="40" height="40" viewBox="0 0 40 40" fill="none" xmlns="http://www.w3.org/2000/svg">
<g clip-path="url(#clip0_222_23)">
<path d="M10.9833 1.1C14.8833 -1.91667 19.1167 1.76667 20.0667 7.5C20.7833 7.5 21.4833 7.7 22.1167 8.06667C22.9833 7.06667 23.75 5.7 23.45 4.16666C22.75 0.583331 26.7667 -2.31667 30.5833 2.63333C33.6 6.53333 29.9167 10.7667 24.1667 11.7167C24.1667 12.4333 23.9833 13.15 23.6 13.7833C24.6 14.6333 25.9667 15.4 27.5 15.1C31.05 14.4 33.9667 18.4 29.0167 22.2333C25.1167 25.25 20.8833 21.5667 19.9333 15.8333C19.2167 15.8333 18.5167 15.6167 17.9 15.25C17.0333 16.25 16.25 17.6333 16.55 19.1667C17.25 22.7333 13.2333 25.65 9.41667 20.7C6.38333 16.7833 10.0833 12.55 15.8333 11.6167C15.8333 10.9 16.05 10.2 16.4167 9.56667C15.4167 8.71667 14.05 7.93333 12.5 8.23333C8.95 8.93333 6.03333 4.93333 10.9833 1.1ZM8.33333 26.6667H11.6667C12.5507 26.6667 13.3986 27.0179 14.0237 27.643C14.6488 28.2681 15 29.1159 15 30V40H11.6667V36.6667H8.33333V40H5V30C5 29.1159 5.35119 28.2681 5.97631 27.643C6.60143 27.0179 7.44928 26.6667 8.33333 26.6667ZM8.33333 30V33.3333H11.6667V30H8.33333ZM21.55 26.6667H25L20.1167 40H16.6667L21.55 26.6667ZM30 26.6667H35V30H30V36.6667H35V40H30C29.1159 40 28.2681 39.6488 27.643 39.0237C27.0179 38.3986 26.6667 37.5507 26.6667 36.6667V30C26.6667 29.1159 27.0179 28.2681 27.643 27.643C28.2681 27.0179 29.1159 26.6667 30 26.6667Z" fill="#FC8B06"/>
</g>
<defs>
<clipPath id="clip0_222_23">
<rect width="40" height="40" fill="white"/>
</clipPath>
</defs>
</svg>
