<?xml version="1.0" standalone="no"?>
<!DOCTYPE svg PUBLIC "-//W3C//DTD SVG 20010904//EN"
 "http://www.w3.org/TR/2001/REC-SVG-20010904/DTD/svg10.dtd">
<svg version="1.0" xmlns="http://www.w3.org/2000/svg"
 width="512.000000pt" height="512.000000pt" viewBox="0 0 512.000000 512.000000"
 preserveAspectRatio="xMidYMid meet">

<g transform="translate(0.000000,512.000000) scale(0.100000,-0.100000)"
fill="#fc8b06" stroke="none">
<path d="M1586 4579 c-20 -16 -26 -29 -26 -59 0 -30 6 -43 26 -59 25 -20 39
-21 240 -21 l214 0 0 -160 0 -160 -235 0 c-149 0 -242 -4 -257 -11 -13 -6 -69
-68 -125 -138 l-101 -128 -85 -5 c-149 -10 -257 -79 -319 -206 -32 -64 -33
-72 -37 -209 l-3 -143 -119 0 -119 0 0 315 0 316 -25 24 c-15 16 -36 25 -55
25 -19 0 -40 -9 -55 -25 l-25 -24 0 -711 0 -711 25 -24 c32 -33 78 -33 110 0
l25 24 0 316 0 315 119 0 120 0 3 -307 3 -308 28 -57 c36 -74 102 -139 175
-175 56 -28 59 -28 295 -33 l237 -5 245 -237 244 -238 801 0 801 0 24 25 c25
24 25 25 25 220 l0 195 100 0 100 0 0 -135 c0 -131 1 -137 25 -160 24 -25 25
-25 230 -25 118 0 214 4 225 10 26 14 103 141 140 230 137 332 160 832 55
1170 -47 150 -128 314 -181 367 -23 22 -28 23 -234 23 -211 0 -211 0 -235 -25
-24 -23 -25 -29 -25 -160 l0 -135 -100 0 -100 0 0 135 c0 131 -1 137 -25 160
-23 24 -29 25 -153 25 l-130 0 -86 198 c-52 118 -97 206 -112 220 -25 22 -28
22 -340 22 l-314 0 0 160 0 160 220 0 221 0 24 25 c16 15 25 36 25 55 0 19 -9
40 -25 55 l-24 25 -714 0 c-707 0 -715 0 -741 -21z m854 -299 l0 -160 -120 0
-120 0 0 160 0 160 120 0 120 0 0 -160z m805 -526 c50 -115 98 -212 110 -220
14 -10 52 -14 132 -14 l113 0 0 -135 c0 -131 1 -137 25 -160 24 -25 24 -25
235 -25 211 0 211 0 235 25 24 23 25 29 25 160 l0 135 120 0 119 0 26 -45 c41
-69 94 -206 121 -311 79 -314 34 -770 -103 -1044 l-38 -75 -122 -3 -123 -3 0
136 c0 131 -1 137 -25 160 -24 25 -24 25 -235 25 -281 0 -260 20 -260 -245 l0
-195 -717 0 -717 0 -241 240 -241 240 -242 0 c-196 0 -250 3 -280 15 -49 21
-81 52 -103 100 -17 37 -19 75 -19 521 l0 482 28 53 c22 43 38 59 81 81 47 25
64 28 148 28 110 0 91 -13 232 163 l95 117 765 0 766 0 90 -206z"/>
<path d="M940 1344 c-101 -37 -172 -110 -205 -211 -14 -42 -16 -84 -13 -234 3
-171 5 -187 28 -234 31 -64 91 -124 155 -155 72 -35 199 -36 270 -1 90 45 168
145 168 215 0 42 -46 80 -87 72 -31 -6 -39 -13 -79 -75 -37 -57 -71 -76 -137
-76 -63 0 -95 16 -134 69 -19 24 -21 44 -24 184 -2 94 1 172 7 194 22 72 106
119 186 104 40 -8 101 -57 111 -89 26 -87 138 -89 160 -3 8 31 -47 136 -89
172 -88 74 -221 103 -317 68z"/>
<path d="M1545 1335 l-25 -24 0 -391 0 -391 25 -24 c32 -33 78 -33 110 0 24
24 25 28 25 180 l0 155 160 0 160 0 0 -155 c0 -152 1 -156 25 -180 32 -33 78
-33 110 0 l25 24 0 391 0 391 -25 24 c-15 16 -36 25 -55 25 -19 0 -40 -9 -55
-25 -24 -24 -25 -28 -25 -180 l0 -155 -160 0 -160 0 0 155 c0 152 -1 156 -25
180 -15 16 -36 25 -55 25 -19 0 -40 -9 -55 -25z"/>
<path d="M2385 1335 l-25 -24 0 -391 0 -391 25 -24 c24 -25 24 -25 235 -25
211 0 211 0 235 25 16 15 25 36 25 55 0 19 -9 40 -25 55 -24 24 -28 25 -180
25 l-155 0 0 100 0 100 155 0 c152 0 156 1 180 25 33 32 33 78 0 110 -24 24
-28 25 -180 25 l-155 0 0 100 0 100 155 0 c152 0 156 1 180 25 16 15 25 36 25
55 0 19 -9 40 -25 55 -24 25 -24 25 -235 25 -211 0 -211 0 -235 -25z"/>
<path d="M3260 1344 c-101 -37 -172 -110 -205 -211 -14 -42 -16 -84 -13 -234
3 -171 5 -187 28 -234 31 -64 91 -124 155 -155 72 -35 199 -36 270 -1 90 45
168 145 168 215 0 42 -46 80 -87 72 -31 -6 -39 -13 -79 -75 -37 -57 -71 -76
-137 -76 -63 0 -95 16 -134 69 -19 24 -21 44 -24 184 -2 94 1 172 7 194 22 72
106 119 186 104 40 -8 101 -57 111 -89 26 -87 138 -89 160 -3 8 31 -47 136
-89 172 -88 74 -221 103 -317 68z"/>
<path d="M3865 1335 l-25 -24 0 -391 0 -391 25 -24 c32 -33 78 -33 110 0 24
23 25 30 25 142 l1 118 33 37 33 37 121 -173 c67 -96 129 -176 138 -180 52
-20 114 18 114 71 0 20 -38 83 -131 216 l-131 187 119 133 c66 72 125 143 132
155 34 64 -44 137 -108 103 -10 -6 -85 -85 -167 -176 l-149 -167 -5 157 c-5
150 -6 158 -29 176 -32 26 -77 24 -106 -6z"/>
</g>
</svg>
