<svg width="40" height="40" viewBox="0 0 40 40" fill="none" xmlns="http://www.w3.org/2000/svg">
<g clip-path="url(#clip0_222_19)">
<path fill-rule="evenodd" clip-rule="evenodd" d="M27.6866 6.59334C23.1083 4.55834 17.6033 7.05667 17.0533 12.3817C16.7941 14.9128 16.665 17.4556 16.6666 20C16.6666 22.8833 16.8283 25.4483 17.0516 27.6167C17.6016 32.9433 23.1083 35.4417 27.6866 33.4067L28.0616 33.24C30.6228 32.1016 32.7988 30.2448 34.326 27.8947C35.8532 25.5445 36.666 22.8019 36.666 19.9992C36.666 17.1964 35.8532 14.4538 34.326 12.1037C32.7988 9.75355 30.6228 7.89677 28.0616 6.75834L27.6866 6.59167V6.59334ZM20.3683 12.725C20.6516 9.98834 23.5066 8.38334 26.3333 9.63834L26.7083 9.805C28.6804 10.6815 30.3559 12.1112 31.5318 13.9207C32.7077 15.7302 33.3336 17.8419 33.3336 20C33.3336 22.1581 32.7077 24.2698 31.5318 26.0793C30.3559 27.8889 28.6804 29.3185 26.7083 30.195L26.3333 30.3617C23.5066 31.6167 20.65 30.0117 20.3666 27.275C20.1199 24.8579 19.9975 22.4297 20 20C20 17.24 20.1566 14.79 20.3683 12.725ZM4.99998 10C4.55795 10 4.13403 10.1756 3.82147 10.4882C3.50891 10.8007 3.33331 11.2246 3.33331 11.6667C3.33331 12.1087 3.50891 12.5326 3.82147 12.8452C4.13403 13.1577 4.55795 13.3333 4.99998 13.3333H13.3333C13.7753 13.3333 14.1993 13.1577 14.5118 12.8452C14.8244 12.5326 15 12.1087 15 11.6667C15 11.2246 14.8244 10.8007 14.5118 10.4882C14.1993 10.1756 13.7753 10 13.3333 10H4.99998ZM4.99998 18.3333C4.55795 18.3333 4.13403 18.5089 3.82147 18.8215C3.50891 19.1341 3.33331 19.558 3.33331 20C3.33331 20.442 3.50891 20.866 3.82147 21.1785C4.13403 21.4911 4.55795 21.6667 4.99998 21.6667H13.3333C13.7753 21.6667 14.1993 21.4911 14.5118 21.1785C14.8244 20.866 15 20.442 15 20C15 19.558 14.8244 19.1341 14.5118 18.8215C14.1993 18.5089 13.7753 18.3333 13.3333 18.3333H4.99998ZM3.33331 28.3333C3.33331 27.8913 3.50891 27.4674 3.82147 27.1548C4.13403 26.8423 4.55795 26.6667 4.99998 26.6667H13.3333C13.7753 26.6667 14.1993 26.8423 14.5118 27.1548C14.8244 27.4674 15 27.8913 15 28.3333C15 28.7754 14.8244 29.1993 14.5118 29.5118C14.1993 29.8244 13.7753 30 13.3333 30H4.99998C4.55795 30 4.13403 29.8244 3.82147 29.5118C3.50891 29.1993 3.33331 28.7754 3.33331 28.3333Z" fill="#FC8B06"/>
</g>
<defs>
<clipPath id="clip0_222_19">
<rect width="40" height="40" fill="white"/>
</clipPath>
</defs>
</svg>
