<?xml version="1.0" standalone="no"?>
<!DOCTYPE svg PUBLIC "-//W3C//DTD SVG 20010904//EN"
 "http://www.w3.org/TR/2001/REC-SVG-20010904/DTD/svg10.dtd">
<svg version="1.0" xmlns="http://www.w3.org/2000/svg"
 width="512.000000pt" height="512.000000pt" viewBox="0 0 512.000000 512.000000"
 preserveAspectRatio="xMidYMid meet">

<g transform="translate(0.000000,512.000000) scale(0.100000,-0.100000)"
fill="#fc8b06" stroke="none">
<path d="M1903 4930 c-482 -74 -905 -288 -1248 -634 -140 -140 -237 -263 -331
-416 -205 -336 -324 -758 -324 -1147 l0 -93 2123 3 2122 3 85 21 c270 69 486
219 625 434 126 195 165 360 165 704 0 305 -26 436 -122 616 -128 240 -337
409 -618 497 l-85 27 -1135 2 c-1060 1 -1143 0 -1257 -17z m2357 -156 c314
-59 558 -277 661 -589 21 -65 23 -91 27 -347 4 -312 -3 -368 -61 -513 -87
-213 -264 -381 -489 -465 -141 -52 -42 -50 -2215 -50 l-2016 0 7 88 c43 570
351 1126 818 1474 320 239 661 369 1078 411 19 2 501 5 1071 5 905 2 1047 0
1119 -14z"/>
<path d="M1805 4604 c-80 -19 -99 -27 -245 -96 -359 -171 -494 -262 -691 -465
-220 -227 -370 -482 -460 -783 -22 -74 -59 -243 -59 -271 0 -19 35 -19 1933
-17 2168 4 1966 -4 2135 79 144 70 269 209 325 359 41 108 50 195 44 441 -4
187 -8 234 -24 285 -37 113 -93 204 -173 284 -85 84 -154 129 -262 168 l-73
27 -1195 2 c-1008 1 -1204 -1 -1255 -13z m355 -169 c409 -125 599 -572 403
-948 -55 -106 -172 -220 -283 -275 -334 -167 -724 -34 -893 303 -158 318 -18
718 308 875 44 21 112 46 150 54 86 19 236 15 315 -9z m747 -36 c-56 -50 -121
-136 -173 -225 -10 -17 -13 -15 -34 26 -33 65 -101 151 -167 209 l-57 51 248
0 249 0 -66 -61z m691 45 c261 -53 465 -259 518 -524 41 -206 -26 -428 -176
-580 -121 -123 -267 -188 -440 -197 -194 -10 -357 53 -495 192 -141 140 -202
300 -192 500 8 172 67 304 193 431 55 56 91 81 165 118 149 74 274 91 427 60z
m608 5 c182 -33 352 -191 400 -373 20 -76 19 -481 -1 -561 -45 -172 -191 -313
-372 -360 -33 -9 -101 -15 -162 -15 l-106 0 53 46 c106 93 211 262 248 399 9
33 19 115 21 183 7 156 -17 269 -83 398 -52 103 -94 158 -178 236 l-61 58 91
0 c50 0 117 -5 150 -11z m-3008 -404 c-43 -126 -50 -298 -19 -430 39 -162 136
-326 253 -429 l53 -46 -468 0 c-286 0 -467 4 -467 9 0 25 74 231 110 309 106
225 268 434 464 597 55 46 101 83 102 82 1 -1 -12 -42 -28 -92z m1600 -722
c19 -29 66 -82 103 -118 l67 -65 -242 0 -242 0 82 83 c44 45 98 112 119 149
l39 68 20 -33 c10 -17 35 -56 54 -84z"/>
<path d="M1907 4119 c-128 -30 -232 -144 -251 -276 l-6 -43 85 0 c83 0 85 1
85 24 0 31 38 85 79 113 61 41 165 24 211 -35 72 -91 25 -231 -88 -261 l-42
-12 0 -79 0 -80 30 0 c102 0 238 104 279 213 68 185 -35 382 -226 432 -63 17
-99 17 -156 4z"/>
<path d="M3397 4120 c-65 -17 -133 -58 -175 -106 -44 -49 -82 -135 -82 -184
l0 -30 80 0 79 0 11 39 c20 77 80 121 163 121 82 0 157 -75 157 -157 0 -82
-50 -147 -124 -162 l-31 -7 -3 -83 -3 -84 48 7 c104 14 195 82 245 183 28 58
33 77 33 143 -1 92 -31 166 -95 230 -76 76 -205 114 -303 90z"/>
<path d="M891 2469 c-330 -39 -623 -242 -773 -535 -103 -201 -122 -311 -115
-657 5 -257 12 -314 55 -437 114 -328 393 -572 742 -651 82 -18 158 -19 2203
-19 l2117 0 0 88 c0 319 -85 677 -232 974 -291 588 -828 1022 -1458 1177 -271
67 -217 64 -1395 67 -588 1 -1103 -2 -1144 -7z m2256 -174 c454 -60 864 -260
1190 -581 215 -212 362 -433 472 -711 71 -180 125 -410 138 -585 l6 -88 -1991
0 c-1358 0 -2015 3 -2069 11 -187 25 -341 104 -483 248 -83 83 -103 110 -148
201 -84 169 -87 188 -87 535 0 287 1 303 23 375 36 113 86 209 157 296 123
153 293 257 485 298 102 22 2140 22 2307 1z"/>
<path d="M915 2140 c-143 -20 -270 -85 -381 -195 -89 -88 -138 -167 -175 -280
-20 -62 -23 -95 -27 -301 -5 -283 6 -355 72 -489 79 -160 212 -278 387 -343
l74 -27 1953 -3 1952 -2 0 20 c0 12 -11 71 -25 132 -110 488 -393 898 -815
1183 -100 67 -460 245 -556 275 -36 11 -105 24 -153 29 -107 12 -2223 12
-2306 1z m187 -206 c-106 -93 -211 -262 -248 -399 -9 -33 -19 -115 -21 -183
-7 -156 17 -269 83 -398 52 -102 93 -157 178 -237 l61 -59 -125 5 c-147 6
-219 27 -314 91 -70 48 -149 147 -186 233 -23 56 -25 68 -28 310 -3 205 -1
263 12 305 51 174 194 316 369 363 29 7 101 14 162 14 l110 1 -53 -46z m692
31 c183 -39 359 -176 444 -345 56 -112 75 -206 69 -335 -8 -172 -67 -304 -193
-431 -115 -116 -296 -193 -457 -194 -140 0 -318 63 -424 152 -162 135 -255
350 -239 553 31 404 404 684 800 600z m760 -67 c-44 -46 -98 -113 -119 -150
l-39 -68 -20 33 c-53 88 -95 143 -157 202 l-67 65 242 0 242 0 -82 -82z m742
62 c194 -49 345 -172 437 -355 158 -318 18 -718 -308 -875 -194 -94 -386 -92
-584 6 -214 105 -346 309 -359 550 -10 199 52 360 192 499 169 168 396 232
622 175z m689 -372 c171 -135 347 -353 450 -557 57 -114 135 -324 135 -363 0
-5 -210 -8 -467 -8 l-468 0 57 53 c114 105 195 235 239 384 44 147 34 373 -22
515 -13 33 -15 48 -7 41 7 -5 45 -35 83 -65z m-1564 -670 c32 -63 101 -149
166 -207 l57 -51 -246 0 -247 0 82 83 c46 45 99 112 121 150 21 37 40 67 42
67 2 0 13 -19 25 -42z"/>
<path d="M1550 1635 c-103 -33 -197 -140 -221 -253 -36 -178 92 -357 279 -387
l42 -7 0 86 c0 84 -1 86 -24 86 -31 0 -85 38 -113 79 -43 63 -24 168 39 212
95 68 227 22 257 -89 l12 -42 79 0 80 0 0 30 c0 102 -104 238 -213 279 -67 24
-150 27 -217 6z"/>
<path d="M3015 1626 c-79 -34 -154 -110 -183 -189 -69 -185 33 -382 225 -432
87 -23 83 -26 83 69 l0 83 -39 7 c-52 8 -106 59 -120 114 -41 149 130 264 257
173 32 -22 62 -76 62 -110 0 -20 5 -21 85 -21 l85 0 -6 43 c-15 107 -91 210
-193 259 -70 34 -180 36 -256 4z"/>
</g>
</svg>
