<?xml version="1.0" standalone="no"?>
<!DOCTYPE svg PUBLIC "-//W3C//DTD SVG 20010904//EN"
 "http://www.w3.org/TR/2001/REC-SVG-20010904/DTD/svg10.dtd">
<svg version="1.0" xmlns="http://www.w3.org/2000/svg"
 width="512.000000pt" height="512.000000pt" viewBox="0 0 512.000000 512.000000"
 preserveAspectRatio="xMidYMid meet">

<g transform="translate(0.000000,512.000000) scale(0.100000,-0.100000)"
fill="#fc8b06" stroke="none">
<path d="M785 5111 c-90 -22 -173 -90 -215 -176 -19 -41 -24 -66 -24 -135 -1
-78 2 -90 33 -148 38 -70 69 -100 145 -140 l51 -27 339 -3 c247 -2 347 0 368
9 42 17 58 56 58 139 l0 70 95 0 c103 0 146 -12 181 -51 12 -13 66 -98 119
-189 96 -162 97 -164 80 -190 -9 -14 -28 -50 -43 -80 l-27 -55 -3 -302 -3
-302 -537 -3 c-532 -3 -538 -3 -592 -26 -113 -46 -196 -129 -242 -242 -22 -53
-23 -67 -23 -335 0 -267 1 -283 22 -335 31 -75 88 -147 152 -192 l53 -37 -259
-3 -258 -3 -57 -28 c-72 -35 -130 -93 -165 -165 l-28 -57 0 -925 0 -925 27
-56 c35 -70 97 -132 168 -167 l55 -27 405 0 405 0 57 28 c72 35 130 93 165
165 27 56 28 62 31 258 l3 201 321 169 c176 93 328 173 338 178 14 6 32 -3 76
-40 70 -57 157 -98 239 -113 87 -16 465 -14 546 3 82 18 151 52 225 112 54 44
58 46 84 33 15 -8 167 -88 338 -178 l311 -164 3 -201 c3 -196 4 -202 30 -257
35 -70 97 -132 168 -167 l55 -27 405 0 405 0 57 28 c72 35 130 93 165 165 l28
57 0 925 0 925 -28 57 c-35 72 -93 130 -165 165 l-57 28 -258 3 -259 3 53 37
c64 45 121 117 152 192 21 52 22 68 22 335 0 268 -1 282 -23 335 -46 113 -129
196 -242 242 -54 23 -60 23 -592 26 l-537 3 -3 302 -3 302 -27 55 c-15 30 -34
66 -43 80 -17 26 -16 28 80 190 53 91 107 176 119 189 35 39 78 51 181 51 l95
0 0 -70 c0 -83 16 -122 58 -139 21 -9 121 -11 368 -9 l339 3 51 27 c76 40 107
70 145 140 31 58 34 70 34 148 0 78 -3 90 -34 148 -38 70 -69 100 -145 140
l-51 27 -339 3 c-247 2 -347 0 -368 -9 -41 -17 -58 -56 -58 -137 l0 -70 -127
-4 c-143 -5 -175 -15 -258 -77 -43 -32 -68 -67 -160 -224 l-110 -186 -365 0
-365 -1 -100 172 c-112 192 -154 242 -240 283 -54 27 -71 30 -187 33 l-128 4
0 69 c0 37 -5 80 -12 94 -24 53 -39 55 -390 54 -178 -1 -336 -4 -353 -8z m555
-311 l0 -121 -265 3 -265 3 -32 33 c-28 28 -33 39 -33 81 0 52 26 93 70 111
11 5 134 9 273 9 l252 1 0 -120z m3002 82 c28 -28 33 -39 33 -82 0 -43 -5 -54
-33 -82 l-32 -33 -265 -3 -265 -3 0 121 0 121 265 -3 265 -3 32 -33z m-1452
-694 c33 -17 51 -35 68 -68 21 -43 22 -54 22 -321 0 -269 -1 -278 -20 -284
-23 -7 -50 -53 -50 -85 0 -29 26 -76 47 -86 10 -5 213 -11 451 -14 l433 -5
-407 -290 c-224 -159 -420 -298 -435 -308 -26 -17 -29 -17 -102 8 -73 24 -84
25 -337 25 -254 0 -264 -1 -338 -26 l-76 -25 -47 33 c-25 18 -220 157 -433
308 l-386 275 433 5 c237 3 440 9 450 14 21 10 47 57 47 86 0 32 -27 78 -50
85 -19 6 -20 15 -20 284 0 267 1 278 23 321 16 33 34 51 67 68 43 21 54 22
330 22 276 0 287 -1 330 -22z m-1865 -925 l94 -68 1 -241 0 -240 28 -55 c50
-99 124 -129 321 -129 195 0 267 25 327 111 14 21 32 39 38 39 6 -1 43 -24 83
-53 l71 -53 -34 -54 c-60 -94 -67 -131 -73 -376 l-6 -220 -150 91 c-82 51
-285 174 -450 275 -483 294 -472 286 -503 338 l-27 47 0 251 0 251 30 48 c22
36 45 57 84 77 29 15 57 28 62 28 5 0 51 -30 104 -67z m3220 48 c54 -24 100
-72 120 -124 14 -37 16 -79 13 -278 -3 -255 -6 -266 -65 -324 -16 -15 -262
-170 -548 -344 l-520 -317 -6 220 c-6 245 -13 282 -73 376 l-34 54 71 53 c40
29 77 52 82 53 6 0 27 -22 47 -49 58 -77 102 -93 272 -99 234 -7 314 20 369
127 l27 55 0 240 1 241 92 67 c50 36 97 67 102 67 6 0 28 -8 50 -18z m-2707
-415 c67 -48 122 -91 122 -97 0 -6 -13 -24 -29 -40 -29 -29 -30 -29 -154 -29
-69 0 -132 3 -141 6 -14 5 -16 29 -16 161 l0 155 48 -35 c26 -19 102 -73 170
-121z m2250 -158 c-7 -4 -71 -8 -141 -8 l-129 0 -30 30 c-16 17 -28 35 -26 41
2 6 78 64 168 129 l165 117 3 -150 c2 -114 -1 -152 -10 -159z m-944 -195 c59
-22 130 -82 156 -134 11 -21 20 -41 20 -44 0 -3 -207 -5 -460 -5 -253 0 -460
2 -460 5 0 33 76 126 125 153 68 38 88 40 330 41 205 1 247 -1 289 -16z
m-1809 -397 c19 -8 35 -18 35 -23 0 -4 -70 -78 -156 -165 l-157 -157 6 -43 c8
-57 43 -88 99 -88 39 0 47 6 149 107 l109 107 0 -174 0 -175 -176 -176 c-158
-158 -176 -180 -181 -216 -5 -35 -1 -45 25 -74 25 -28 37 -34 71 -34 39 0 47
6 151 110 l110 110 0 -175 0 -174 -174 -176 c-108 -109 -177 -185 -181 -202
-19 -77 46 -142 122 -123 15 3 73 51 131 108 l103 102 -3 -162 c-3 -145 -5
-165 -24 -190 -45 -62 -54 -63 -434 -63 -385 0 -392 1 -437 69 -21 32 -23 44
-23 189 l0 156 103 -101 c57 -57 115 -105 130 -108 76 -19 141 46 122 122 -4
18 -73 94 -181 203 l-174 176 0 174 0 175 110 -110 c104 -104 112 -110 151
-110 34 0 46 6 71 34 26 29 30 39 25 74 -5 36 -23 58 -181 216 l-176 176 0
175 0 174 109 -107 c102 -101 110 -107 149 -107 56 0 91 31 99 88 l6 43 -157
157 c-86 87 -156 161 -156 165 0 3 12 13 28 21 40 22 706 23 757 2z m2005
-146 l0 -160 -480 0 -480 0 0 160 0 160 480 0 480 0 0 -160z m1795 146 c19 -8
35 -18 35 -23 0 -4 -70 -78 -156 -165 l-157 -157 6 -43 c8 -57 43 -88 99 -88
39 0 47 6 149 107 l109 107 0 -174 0 -175 -176 -176 c-158 -158 -176 -180
-181 -216 -5 -35 -1 -45 25 -74 25 -28 37 -34 71 -34 39 0 47 6 151 110 l110
110 0 -175 0 -174 -174 -176 c-108 -109 -177 -185 -181 -202 -19 -77 46 -142
122 -123 15 3 73 51 131 108 l103 102 -3 -162 c-3 -145 -5 -165 -24 -190 -45
-62 -54 -63 -434 -63 -385 0 -392 1 -437 69 -21 32 -23 44 -23 189 l0 156 103
-101 c57 -57 115 -105 130 -108 76 -19 141 46 122 122 -4 18 -73 94 -181 203
l-174 176 0 174 0 175 110 -110 c104 -104 112 -110 151 -110 34 0 46 6 71 34
26 29 30 39 25 74 -5 36 -23 58 -181 216 l-176 176 0 175 0 174 109 -107 c102
-101 110 -107 149 -107 56 0 91 31 99 88 l6 43 -157 157 c-86 87 -156 161
-156 165 0 3 12 13 28 21 40 22 706 23 757 2z m-3228 -293 c268 -163 274 -168
271 -197 -3 -29 -17 -38 -273 -173 -148 -78 -273 -142 -277 -143 -5 0 -8 153
-8 340 0 187 3 340 6 340 4 0 130 -75 281 -167z m2193 -173 c0 -187 -3 -340
-7 -340 -5 1 -129 65 -278 144 -265 141 -270 144 -270 174 0 30 10 38 270 196
149 91 273 165 278 166 4 0 7 -153 7 -340z m-762 -227 c-3 -174 -5 -192 -27
-237 -32 -64 -82 -113 -150 -145 -56 -26 -58 -26 -301 -26 -243 0 -245 0 -301
26 -68 32 -118 81 -150 145 -22 45 -24 63 -27 237 l-4 187 482 0 482 0 -4
-187z m-1144 -233 l7 -35 -178 -92 c-98 -51 -229 -119 -290 -152 l-113 -59 0
113 0 113 278 146 277 145 6 -72 c3 -40 9 -88 13 -107z m1626 36 l275 -145 3
-114 3 -114 -291 151 c-277 144 -290 152 -285 176 3 14 8 62 12 108 3 45 6 82
7 82 1 0 125 -65 276 -144z"/>
<path d="M2391 3956 c-47 -26 -63 -84 -37 -135 23 -43 54 -51 206 -51 152 0
183 8 206 51 27 52 8 115 -41 137 -37 17 -302 16 -334 -2z"/>
<path d="M2511 3516 c-87 -48 -50 -186 49 -186 51 0 100 49 100 99 0 75 -83
124 -149 87z"/>
<path d="M2339 1411 c-21 -22 -29 -39 -29 -66 0 -92 32 -105 252 -105 153 0
177 2 204 19 45 27 61 79 39 124 -9 19 -27 39 -41 46 -16 7 -93 11 -210 11
l-186 0 -29 -29z"/>
</g>
</svg>
