<?xml version="1.0" standalone="no"?>
<!DOCTYPE svg PUBLIC "-//W3C//DTD SVG 20010904//EN"
 "http://www.w3.org/TR/2001/REC-SVG-20010904/DTD/svg10.dtd">
<svg version="1.0" xmlns="http://www.w3.org/2000/svg"
 width="512.000000pt" height="512.000000pt" viewBox="0 0 512.000000 512.000000"
 preserveAspectRatio="xMidYMid meet">

<g transform="translate(0.000000,512.000000) scale(0.100000,-0.100000)"
fill="#fc8b06" stroke="none">
<path d="M2697 4169 c-107 -25 -205 -108 -259 -217 -30 -61 -33 -74 -33 -162
0 -134 28 -191 164 -332 55 -58 101 -109 101 -114 0 -5 -82 -207 -183 -449
l-182 -440 -880 -3 -880 -2 -272 -272 -273 -273 0 -102 0 -103 75 0 75 0 0 73
0 72 228 228 227 227 351 -2 351 -3 -153 -260 -152 -260 -303 -5 c-249 -5
-312 -9 -345 -22 -141 -55 -239 -174 -265 -320 -38 -210 107 -423 319 -467 70
-15 1506 -15 1583 -1 350 67 449 534 155 735 -93 63 -118 68 -359 74 l-217 6
152 262 153 262 265 3 265 3 204 493 205 492 341 0 341 0 44 -45 44 -45 -242
0 -242 0 0 -143 0 -142 138 -138 137 -137 385 0 385 0 213 -213 212 -212 0
-65 0 -65 -158 -158 -157 -157 -963 0 -962 0 0 -75 0 -75 993 0 992 0 203 203
202 202 0 130 0 130 -948 948 -947 947 -45 -1 c-25 -1 -62 -5 -83 -10z m353
-434 l295 -295 -270 0 -270 0 -106 103 c-129 125 -143 149 -143 242 0 78 20
129 71 177 23 22 105 67 123 68 3 0 138 -133 300 -295z m815 -815 l130 -130
-280 0 -280 0 -92 92 c-85 84 -93 96 -93 130 l0 38 243 0 242 0 130 -130z
m-2196 -677 c-18 -32 -87 -150 -154 -263 l-120 -205 -108 -3 c-59 -1 -107 0
-107 3 0 4 68 123 151 266 l152 259 109 0 109 0 -32 -57z m346 -647 c93 -43
145 -118 153 -219 8 -101 -49 -200 -142 -250 -41 -22 -42 -22 -805 -25 -859
-3 -825 -5 -907 70 -48 45 -84 124 -84 188 0 97 67 197 160 239 44 20 62 21
810 21 l765 0 50 -24z"/>
<path d="M414 1536 c-48 -22 -102 -92 -110 -143 -19 -125 87 -235 211 -221
169 20 225 252 83 346 -48 31 -136 40 -184 18z m106 -151 c26 -32 -13 -81 -47
-59 -35 22 -23 74 17 74 10 0 23 -7 30 -15z"/>
<path d="M885 1533 c-88 -46 -127 -129 -104 -217 31 -118 154 -177 265 -127
141 64 141 278 0 342 -50 23 -121 24 -161 2z m115 -152 c13 -25 13 -27 -6 -45
-35 -36 -87 0 -64 44 14 26 56 26 70 1z"/>
<path d="M1352 1529 c-124 -63 -136 -245 -22 -324 97 -67 232 -29 281 80 25
54 24 102 -3 155 -51 99 -161 138 -256 89z m118 -144 c26 -32 -13 -81 -47 -59
-35 22 -23 74 17 74 10 0 23 -7 30 -15z"/>
<path d="M1835 1536 c-39 -18 -80 -62 -99 -108 -54 -129 57 -271 200 -255 137
15 209 178 131 295 -46 70 -155 102 -232 68z m105 -151 c26 -32 -13 -81 -47
-59 -35 22 -23 74 17 74 10 0 23 -7 30 -15z"/>
<path d="M282 2938 c-74 -28 -153 -108 -182 -184 -37 -99 -27 -212 25 -294 33
-50 123 -130 147 -130 9 0 58 106 58 124 0 7 -14 22 -31 35 -100 74 -92 237
16 298 l40 23 998 0 997 0 0 75 0 75 -1007 -1 c-991 0 -1009 0 -1061 -21z"/>
<path d="M1260 2635 l0 -76 73 3 72 3 3 73 3 72 -76 0 -75 0 0 -75z"/>
<path d="M1510 2635 l0 -76 73 3 72 3 3 73 3 72 -76 0 -75 0 0 -75z"/>
<path d="M1760 2635 l0 -75 215 0 215 0 0 75 0 75 -215 0 -215 0 0 -75z"/>
<path d="M4255 2130 l-110 -110 -167 0 -168 0 0 -75 0 -75 203 0 202 0 135
135 134 135 -49 50 c-27 27 -54 50 -60 50 -6 0 -60 -49 -120 -110z"/>
<path d="M3310 1945 l0 -75 75 0 75 0 0 75 0 75 -75 0 -75 0 0 -75z"/>
<path d="M3560 1945 l0 -75 75 0 75 0 0 75 0 75 -75 0 -75 0 0 -75z"/>
<path d="M4687 1953 c-4 -3 -7 -129 -7 -280 l0 -273 -465 0 -464 0 -37 63
c-20 34 -37 64 -39 65 -6 6 -125 -63 -125 -71 0 -5 25 -54 56 -108 l56 -99
537 0 537 0 47 48 47 48 0 227 0 227 23 0 c14 0 41 -18 70 -48 l47 -48 0 -235
0 -235 -68 -67 -68 -67 -1017 0 -1018 0 3 73 3 72 343 3 c188 1 342 4 342 7 0
6 -141 257 -151 268 -8 11 -129 -53 -129 -68 0 -6 7 -20 15 -33 l16 -22 -293
-2 -293 -3 -3 -222 -2 -223 1122 0 1123 0 113 113 112 112 0 296 0 295 -99 97
-98 97 -115 0 c-63 0 -118 -3 -121 -7z"/>
</g>
</svg>
