<?xml version="1.0" standalone="no"?>
<!DOCTYPE svg PUBLIC "-//W3C//DTD SVG 20010904//EN"
 "http://www.w3.org/TR/2001/REC-SVG-20010904/DTD/svg10.dtd">
<svg version="1.0" xmlns="http://www.w3.org/2000/svg"
 width="512.000000pt" height="512.000000pt" viewBox="0 0 512.000000 512.000000"
 preserveAspectRatio="xMidYMid meet">
<metadata>
Created by potrace 1.16, written by Peter Selinger 2001-2019
</metadata>
<g transform="translate(0.000000,512.000000) scale(0.100000,-0.100000)"
fill="#fc8b06" stroke="none">
<path d="M4568 5105 c-198 -54 -331 -266 -299 -475 7 -40 16 -81 22 -91 8 -15
2 -34 -28 -89 -21 -38 -42 -70 -46 -70 -4 0 -25 9 -47 20 -87 45 -112 28 -205
-141 -84 -152 -76 -146 -153 -118 -78 29 -152 -7 -152 -75 0 -74 -9 -71 601
-236 497 -134 559 -149 588 -139 31 11 61 52 61 84 0 43 -30 74 -88 91 -31 9
-60 18 -64 21 -4 2 4 27 18 55 36 72 25 112 -45 152 l-50 29 39 71 c38 68 41
72 94 87 105 32 197 103 251 194 66 113 74 278 18 396 -53 115 -149 199 -263
233 -64 19 -186 20 -252 1z m228 -185 c55 -27 120 -98 133 -146 45 -161 -51
-307 -216 -329 -61 -8 -86 -31 -135 -129 -17 -34 -37 -71 -45 -83 l-15 -22
-68 37 -68 37 55 103 c61 114 62 121 23 227 -20 53 -21 67 -12 118 23 122 123
207 245 207 41 0 75 -7 103 -20z m-222 -951 c6 -6 6 -13 -1 -20 -8 -8 -73 5
-240 50 -125 34 -236 64 -245 67 -16 5 -13 13 19 73 l37 67 210 -114 c116 -63
215 -118 220 -123z"/>
<path d="M4611 4734 c-23 -42 -40 -78 -39 -79 2 -2 38 -22 80 -45 l77 -41 40
73 c23 40 41 78 41 83 0 9 -136 85 -152 85 -4 0 -25 -34 -47 -76z"/>
<path d="M3553 3820 c-23 -9 -53 -58 -53 -85 0 -40 34 -76 85 -90 202 -57
1040 -265 1068 -265 37 0 70 28 80 69 9 36 -16 86 -49 99 -30 12 -1025 266
-1079 276 -16 3 -40 1 -52 -4z"/>
<path d="M347 3580 c-111 -19 -233 -104 -290 -203 -61 -106 -57 -2 -55 -1602
l3 -1460 32 -67 c44 -94 109 -160 202 -206 l75 -37 625 0 626 0 65 31 c81 39
145 96 187 165 59 99 63 134 63 535 l0 362 146 4 c146 3 146 3 170 31 23 27
24 34 24 173 l0 144 373 0 c315 0 380 -3 422 -16 66 -22 206 -21 264 0 38 14
113 16 597 16 l554 0 0 -135 c0 -160 9 -188 68 -205 24 -8 128 -10 304 -8 266
3 266 3 292 27 l26 24 0 637 c0 625 0 637 -20 658 -11 12 -31 24 -43 27 -12 3
-147 5 -299 3 -349 -4 -322 13 -326 -193 l-3 -145 -265 0 -265 0 61 116 c33
63 60 125 60 138 0 36 -27 63 -108 107 -42 23 -79 43 -81 45 -3 2 144 280 156
293 1 3 67 -13 146 -34 78 -21 157 -39 174 -39 46 0 83 37 83 84 0 49 -22 76
-78 94 -128 41 -1019 278 -1050 279 -71 2 -110 -96 -59 -147 15 -15 63 -33
145 -56 l121 -33 -46 -86 c-25 -47 -49 -89 -52 -93 -3 -4 -46 13 -94 38 -97
48 -126 50 -162 10 -12 -12 -58 -90 -103 -174 -110 -201 -109 -233 6 -291 31
-16 66 -36 76 -44 19 -14 19 -15 0 -48 -15 -25 -30 -36 -64 -44 -59 -15 -121
-48 -164 -85 l-34 -30 -306 0 -306 0 0 143 c-1 196 -2 197 -204 197 l-136 0 0
368 c0 392 -3 419 -52 516 -54 106 -183 196 -308 216 -77 12 -1101 12 -1173 0z
m333 -1785 l0 -1615 -80 0 -80 0 0 1615 0 1615 80 0 80 0 0 -1615z m340 0 l0
-1615 -80 0 -80 0 0 1615 0 1615 80 0 80 0 0 -1615z m340 0 l0 -1615 -80 0
-80 0 0 1615 0 1615 80 0 80 0 0 -1615z m-1020 0 c0 -1338 -2 -1595 -14 -1595
-24 0 -103 79 -125 125 l-21 45 0 1420 c0 1532 -3 1450 51 1518 17 23 94 82
106 82 1 0 3 -718 3 -1595z m1280 1539 c21 -19 47 -56 59 -84 l21 -49 -2
-1423 c-3 -1366 -4 -1424 -22 -1458 -30 -57 -99 -120 -131 -120 -3 0 -5 718
-5 1595 l0 1596 21 -11 c11 -7 38 -27 59 -46z m2114 -455 l54 -20 -60 -109
c-33 -61 -63 -110 -66 -110 -15 0 -127 68 -127 76 0 5 23 51 50 102 56 104 46
100 149 61z m-227 -365 c158 -86 290 -158 291 -160 2 -1 -13 -34 -33 -72 l-36
-69 -295 160 -294 159 37 69 c20 38 38 69 40 69 1 0 132 -70 290 -156z m-1467
-724 l0 -510 -80 0 -80 0 0 510 0 510 80 0 80 0 0 -510z m2900 0 l0 -510 -165
0 -165 0 0 510 0 510 165 0 165 0 0 -510z m-1592 422 c34 -18 62 -37 62 -42 0
-6 -13 -34 -30 -63 -35 -63 -37 -98 -9 -162 29 -65 28 -151 -1 -208 -30 -58
-57 -85 -115 -114 -161 -82 -355 37 -355 218 0 131 87 227 227 249 68 11 81
23 118 100 16 33 31 59 34 58 3 -2 34 -18 69 -36z m-622 -370 c0 -98 4 -125
22 -164 l21 -48 -274 0 -275 0 0 165 0 165 253 0 252 0 1 -118z m1364 -47 l0
-165 -281 0 c-263 0 -281 1 -276 18 3 9 13 37 22 62 13 34 16 70 13 148 l-4
102 263 0 263 0 0 -165z m340 0 l0 -165 -80 0 -80 0 0 165 0 165 80 0 80 0 0
-165z"/>
<path d="M3060 1840 l0 -90 90 0 90 0 0 90 0 90 -90 0 -90 0 0 -90z"/>
<path d="M3394 3520 c-63 -24 -73 -128 -15 -159 10 -6 258 -74 552 -152 596
-157 588 -156 622 -87 16 33 17 40 3 72 -8 20 -25 40 -38 46 -26 11 -1027 275
-1073 283 -16 3 -40 1 -51 -3z"/>
</g>
</svg>
