<?xml version="1.0" standalone="no"?>
<!DOCTYPE svg PUBLIC "-//W3C//DTD SVG 20010904//EN"
 "http://www.w3.org/TR/2001/REC-SVG-20010904/DTD/svg10.dtd">
<svg version="1.0" xmlns="http://www.w3.org/2000/svg"
 width="512.000000pt" height="512.000000pt" viewBox="0 0 512.000000 512.000000"
 preserveAspectRatio="xMidYMid meet">

<g transform="translate(0.000000,512.000000) scale(0.100000,-0.100000)"
fill="#fc8b06" stroke="none">
<path d="M4453 4985 c-83 -23 -119 -45 -405 -247 l-268 -190 -61 56 c-69 64
-101 83 -156 92 -150 24 -277 -141 -218 -283 9 -20 66 -88 127 -150 l112 -113
-79 -80 -79 -79 -134 71 c-118 62 -142 71 -201 76 -88 6 -154 -21 -215 -89
-76 -84 -88 -211 -30 -306 25 -41 120 -118 168 -137 6 -2 -11 -26 -38 -54
l-49 -50 -133 70 c-108 56 -146 71 -193 75 -165 15 -305 -122 -288 -284 11
-102 63 -168 187 -236 l33 -18 -48 -49 -48 -49 -139 71 c-109 56 -150 72 -194
76 -112 9 -212 -46 -260 -144 -68 -140 -12 -289 138 -365 24 -12 45 -23 47
-25 3 -3 -17 -27 -44 -54 l-48 -49 -139 72 c-138 71 -140 72 -216 72 -87 -1
-135 -20 -189 -77 -64 -66 -92 -186 -63 -263 8 -21 -5 -13 -62 39 -74 67 -86
73 -117 56 -34 -18 -177 -242 -191 -299 -21 -87 3 -191 59 -255 15 -17 9 -25
-127 -156 l-142 -138 -94 -202 c-52 -111 -96 -204 -99 -206 -3 -3 -33 -12 -68
-20 -275 -64 -449 -346 -384 -623 41 -171 161 -304 335 -370 92 -35 246 -36
342 -3 174 60 297 192 343 368 8 32 18 61 22 65 5 5 98 49 208 99 l200 91 141
141 142 141 34 -26 c71 -55 182 -72 266 -43 55 20 268 159 281 184 6 12 11 26
11 33 0 7 -72 85 -160 174 l-160 161 98 95 97 96 110 -59 c139 -75 174 -88
244 -88 96 1 187 56 234 145 31 57 30 173 -1 232 -30 56 -81 104 -142 133 -27
13 -50 26 -50 30 0 3 22 27 48 53 l48 47 114 -61 c140 -75 179 -89 239 -89
241 0 358 294 181 454 -22 19 -58 45 -82 57 -24 12 -45 23 -47 25 -3 3 17 27
44 54 l48 49 135 -71 c118 -62 142 -71 201 -76 88 -6 154 21 214 88 49 54 67
103 67 179 0 96 -47 171 -143 227 -34 20 -64 38 -66 40 -3 3 17 26 43 53 l48
49 144 -74 c154 -79 196 -89 286 -64 95 27 176 127 185 228 l6 60 33 -14 c131
-55 274 44 274 191 0 69 -17 103 -90 180 l-57 60 189 260 c220 301 232 320
252 400 88 337 -226 650 -561 560z m260 -139 c71 -34 133 -97 166 -166 22 -46
26 -69 26 -140 0 -113 -8 -127 -234 -437 l-183 -253 -27 20 c-38 27 -596 588
-591 593 8 8 494 351 521 369 85 54 227 61 322 14z m-1132 -284 c15 -9 250
-238 523 -508 493 -488 496 -491 496 -532 0 -50 -34 -82 -88 -82 -32 0 -62 27
-441 402 -676 668 -621 611 -621 647 0 23 9 41 29 62 34 33 64 37 102 11z
m304 -702 c109 -109 196 -202 193 -205 -3 -3 -73 29 -154 73 -82 43 -202 107
-268 142 l-118 62 63 64 c35 35 68 64 74 64 6 0 100 -90 210 -200z m-207 -137
c409 -216 570 -306 584 -326 47 -65 28 -158 -42 -205 -71 -48 -77 -45 -690
280 -622 329 -605 318 -598 416 4 41 11 59 34 83 35 38 57 48 109 48 33 1 130
-47 603 -296z m-255 -330 l259 -136 -49 -49 c-26 -27 -52 -47 -58 -46 -6 2
-129 65 -274 142 l-263 138 48 49 c31 32 54 47 64 44 8 -4 131 -67 273 -142z
m-468 -42 c787 -414 789 -415 812 -451 16 -23 23 -48 23 -82 0 -43 -5 -54 -38
-90 -33 -35 -45 -41 -90 -46 l-52 -5 -566 299 c-411 217 -572 307 -586 327
-46 65 -27 159 41 204 68 46 83 40 456 -156z m-49 -437 c143 -75 262 -140 266
-143 5 -4 -14 -29 -41 -55 l-49 -48 -213 112 c-118 62 -238 126 -267 143 l-54
29 48 49 c27 27 49 49 50 49 1 0 118 -61 260 -136z m-226 -169 c300 -158 557
-299 573 -313 41 -38 53 -94 32 -148 -23 -62 -65 -89 -135 -89 -53 0 -79 13
-600 289 -300 159 -557 300 -573 314 -68 64 -50 183 35 226 70 36 82 31 668
-279z m-263 -325 c137 -72 251 -134 255 -139 5 -4 -14 -28 -41 -55 l-48 -48
-259 137 c-143 76 -263 140 -267 142 -13 8 86 104 100 99 7 -3 124 -64 260
-136z m-318 -121 c675 -356 655 -345 680 -389 39 -70 18 -147 -51 -191 -70
-43 -83 -38 -658 266 -289 152 -542 288 -562 301 -51 33 -71 75 -66 136 5 51
24 79 73 109 65 40 73 37 584 -232z m-365 -565 l537 -531 -81 -53 c-90 -59
-149 -73 -207 -49 -44 19 -876 839 -898 885 -28 59 -16 111 45 204 29 45 56
79 60 78 4 -2 249 -242 544 -534z m-194 391 c0 -16 -21 -10 -41 12 l-24 26 33
-17 c17 -9 32 -18 32 -21z m493 -255 l158 -84 -85 -85 -86 -86 -205 205 -204
204 21 23 21 23 111 -59 c61 -32 182 -96 269 -141z m-593 -420 l315 -309 -117
-117 -116 -117 -314 307 c-172 169 -314 311 -316 316 -3 8 217 229 228 229 3
0 147 -139 320 -309z m-181 -454 l155 -155 -119 -56 c-163 -76 -161 -76 -169
-23 -27 166 -223 358 -393 384 -24 3 -43 10 -41 14 2 4 30 67 62 138 l60 131
145 -139 c80 -76 215 -208 300 -294z m-464 0 c132 -65 213 -183 222 -326 14
-199 -106 -364 -302 -416 -91 -25 -203 -11 -293 35 -165 84 -251 296 -192 470
37 110 102 186 200 236 72 36 114 45 208 41 72 -3 94 -9 157 -40z"/>
<path d="M4496 4745 c-107 -38 -164 -168 -120 -273 34 -82 110 -132 199 -132
191 0 284 221 150 355 -61 61 -146 80 -229 50z m139 -127 c15 -14 28 -38 32
-60 5 -32 1 -41 -25 -68 -43 -43 -100 -43 -136 1 -35 41 -34 83 3 120 37 37
88 39 126 7z"/>
<path d="M529 894 c-143 -44 -221 -221 -159 -360 45 -103 131 -158 245 -157
81 0 128 18 184 69 117 105 114 288 -6 394 -74 65 -168 84 -264 54z m138 -115
c42 -16 82 -59 94 -101 38 -141 -138 -245 -245 -144 -118 110 0 302 151 245z"/>
</g>
</svg>
