<?xml version="1.0" standalone="no"?>
<!DOCTYPE svg PUBLIC "-//W3C//DTD SVG 20010904//EN"
 "http://www.w3.org/TR/2001/REC-SVG-20010904/DTD/svg10.dtd">
<svg version="1.0" xmlns="http://www.w3.org/2000/svg"
 width="512.000000pt" height="512.000000pt" viewBox="0 0 512.000000 512.000000"
 preserveAspectRatio="xMidYMid meet">

<g transform="translate(0.000000,512.000000) scale(0.100000,-0.100000)"
fill="#fc8b06" stroke="none">
<path d="M2350 5109 c-664 -75 -1243 -484 -1535 -1084 -132 -272 -195 -543
-195 -842 0 -588 267 -1147 723 -1514 l98 -79 -214 0 c-233 0 -290 -9 -381
-58 -76 -41 -144 -115 -185 -201 l-36 -76 0 -460 0 -460 37 -77 c43 -91 111
-164 187 -202 115 -59 28 -56 1708 -56 1104 0 1557 3 1595 11 107 23 198 82
265 172 81 110 83 128 83 613 0 403 -1 428 -21 486 -38 114 -115 205 -216 257
-85 43 -144 51 -371 51 l-214 0 64 47 c98 73 287 267 370 379 667 903 453
2151 -476 2775 -374 252 -844 368 -1286 318z m45 -213 c-9 -20 -13 -47 -9 -61
9 -35 50 -65 91 -65 42 0 68 26 107 109 28 58 31 61 65 61 91 -1 397 -55 434
-77 4 -2 -4 -18 -18 -35 -53 -62 -20 -148 56 -148 31 0 49 9 98 50 33 28 66
50 72 50 33 0 293 -159 378 -231 21 -17 22 -22 10 -30 -7 -5 -18 -9 -23 -9 -6
0 -20 -10 -33 -22 -50 -47 -14 -148 53 -148 15 0 58 10 96 22 l68 22 31 -30
c61 -58 249 -327 249 -356 0 -4 -17 -8 -39 -8 -71 0 -116 -61 -90 -122 17 -40
57 -58 132 -58 35 0 70 -5 79 -12 29 -23 92 -261 112 -422 5 -43 4 -47 -12
-40 -9 4 -36 9 -59 12 -72 7 -113 -54 -81 -122 7 -16 37 -39 84 -63 l74 -38 0
-50 c0 -92 -53 -379 -77 -418 -3 -5 -18 4 -34 19 -59 57 -149 22 -149 -57 0
-31 10 -49 55 -103 l55 -65 -44 -85 c-66 -126 -197 -316 -218 -316 -4 0 -8 6
-8 14 0 8 -12 28 -26 45 -46 55 -133 35 -150 -34 -4 -15 4 -55 20 -102 l27
-78 -53 -48 c-73 -65 -213 -164 -306 -214 l-77 -43 -773 0 -773 0 -50 26 c-99
50 -309 194 -309 212 0 4 18 14 39 23 70 29 74 124 6 156 -32 15 -37 15 -117
-11 l-83 -26 -34 37 c-81 91 -241 326 -241 355 0 4 18 8 39 8 85 0 127 88 70
146 -22 21 -37 26 -112 31 l-86 6 -25 76 c-14 42 -32 104 -41 138 -18 71 -47
255 -41 261 2 2 18 -4 36 -13 81 -42 166 49 114 123 -8 12 -47 38 -85 57 l-69
35 0 48 c1 94 53 387 77 425 2 4 20 -6 39 -23 53 -46 114 -37 138 22 19 44 10
69 -49 139 l-53 63 38 76 c53 106 214 342 224 329 1 -2 8 -19 16 -37 25 -65
108 -78 150 -25 26 33 25 54 -4 140 l-24 71 36 35 c76 72 328 247 356 247 3 0
6 -18 6 -40 0 -55 34 -90 88 -90 62 0 83 31 91 132 l6 82 50 19 c84 31 229 67
327 81 51 7 94 12 96 11 1 -1 -5 -18 -13 -39z m-1230 -3516 c-35 -68 -1 -140
67 -140 49 0 74 23 113 101 l35 69 120 0 119 0 -15 -35 c-20 -50 -17 -82 11
-110 17 -18 35 -25 63 -25 47 0 67 20 111 108 l31 62 120 0 c66 0 120 -2 120
-5 0 -2 -7 -20 -16 -39 -31 -63 6 -126 74 -126 47 0 67 20 111 108 l31 62 120
0 c66 0 120 -3 120 -7 -1 -5 -7 -19 -15 -33 -21 -37 -18 -65 11 -99 20 -24 34
-31 62 -31 50 1 63 13 106 98 l36 72 120 0 c66 0 120 -2 120 -4 0 -2 -7 -20
-15 -41 -27 -64 10 -125 77 -125 48 0 71 23 112 109 l30 61 119 0 c110 0 119
-1 111 -17 -4 -10 -9 -37 -12 -61 -5 -57 24 -92 78 -92 50 0 70 18 109 99 l35
71 123 0 124 0 -16 -30 c-35 -68 -1 -140 67 -140 48 0 69 19 107 99 l35 71 41
0 c146 0 247 -106 261 -272 l7 -78 -1773 0 -1773 0 7 78 c9 102 43 173 103
216 64 45 97 54 196 55 l88 1 -16 -30z m3163 -542 l-3 -43 -1765 0 -1765 0 -3
43 -3 42 1771 0 1771 0 -3 -42z m-4 -338 c-1 -125 -15 -174 -68 -237 -39 -46
-119 -83 -181 -83 l-51 0 -35 71 c-38 80 -59 99 -107 99 -68 0 -102 -72 -67
-140 l16 -30 -124 0 -123 0 -35 71 c-19 39 -43 78 -54 85 -32 23 -83 17 -111
-12 -22 -21 -25 -32 -22 -67 3 -23 8 -50 12 -60 8 -16 -1 -17 -111 -17 l-119
0 -30 61 c-39 83 -65 109 -107 109 -41 0 -82 -30 -91 -65 -4 -14 0 -41 9 -61
8 -20 15 -38 15 -40 0 -2 -54 -4 -120 -4 l-120 0 -31 63 c-43 86 -64 107 -109
107 -65 0 -102 -62 -75 -125 8 -21 15 -39 15 -41 0 -2 -54 -4 -120 -4 l-120 0
-31 63 c-43 86 -64 107 -110 107 -29 0 -43 -7 -63 -31 -29 -34 -32 -62 -11
-99 8 -14 14 -28 15 -32 0 -5 -54 -8 -120 -8 l-120 0 -35 69 c-39 78 -64 101
-112 101 -63 0 -97 -63 -70 -131 l15 -39 -122 0 -122 0 -28 65 c-33 75 -65
105 -113 105 -69 0 -103 -71 -68 -140 l16 -30 -94 0 c-80 0 -100 4 -145 26
-101 50 -140 124 -149 278 -3 57 -3 111 0 120 6 15 160 16 1769 14 l1763 -3
-1 -115z"/>
<path d="M2345 4394 c-552 -98 -971 -559 -1014 -1116 -30 -379 106 -732 382
-996 478 -456 1225 -452 1701 8 155 150 260 319 324 520 40 127 55 231 55 375
-1 202 -38 357 -128 540 -172 352 -507 603 -890 669 -111 20 -321 19 -430 0z
m432 -180 c506 -104 868 -574 840 -1088 -15 -265 -114 -491 -300 -683 -139
-143 -302 -239 -495 -290 -86 -23 -116 -26 -262 -27 -147 0 -175 3 -262 26
-187 51 -335 136 -475 271 -424 412 -428 1088 -9 1502 97 97 177 153 300 210
210 99 437 126 663 79z"/>
<path d="M2378 4040 c-358 -75 -630 -362 -689 -725 -15 -93 -6 -275 17 -360
43 -160 126 -297 253 -417 102 -97 197 -154 331 -199 85 -29 110 -33 235 -37
100 -3 160 0 210 11 351 75 620 346 691 697 25 123 16 305 -21 420 -35 107
-80 198 -139 277 -205 272 -555 404 -888 333z m413 -197 c256 -89 432 -308
469 -581 38 -282 -114 -572 -370 -706 -114 -60 -199 -81 -330 -81 -92 0 -130
5 -190 24 -314 97 -511 357 -512 676 -1 266 140 504 372 625 123 63 201 81
350 77 108 -3 137 -7 211 -34z"/>
</g>
</svg>
