<svg width="40" height="40" viewBox="0 0 40 40" fill="none" xmlns="http://www.w3.org/2000/svg">
<path d="M13 28.3333V25.8333C13 23.5 10.6667 21.6667 8.33335 21.6667C6.00002 21.6667 3.66669 23.5 3.66669 25.8333V28.3333C2.66669 28.3333 1.66669 29.3333 1.66669 30.3333V36.1667C1.66669 37.3333 2.66669 38.3333 3.66669 38.3333H12.8334C14 38.3333 15 37.3333 15 36.3333V30.5C15 29.3333 14 28.3333 13 28.3333ZM10.8334 28.3333H5.83335V25.8333C5.83335 24.5 7.00002 23.6667 8.33335 23.6667C9.66669 23.6667 10.8334 24.5 10.8334 25.8333V28.3333ZM35 5H18.3334L5.00002 18.3333V19.0667C6.01669 18.6167 7.15002 18.3333 8.33335 18.3333C12.6667 18.3333 16.3334 21.7667 16.3334 25.8333V26.25C17.55 27.2667 18.3334 28.8 18.3334 30.5V35H36.6667V6.66667C36.6667 5.75 35.9167 5 35 5ZM31.6667 26.6667H26.6667V23.3333H31.6667V26.6667ZM33.3334 18.3333H9.71669L19.7167 8.33333H33.3334V18.3333Z" fill="#FC8B06"/>
</svg>
