<?xml version="1.0" standalone="no"?>
<!DOCTYPE svg PUBLIC "-//W3C//DTD SVG 20010904//EN"
 "http://www.w3.org/TR/2001/REC-SVG-20010904/DTD/svg10.dtd">
<svg version="1.0" xmlns="http://www.w3.org/2000/svg"
 width="512.000000pt" height="512.000000pt" viewBox="0 0 512.000000 512.000000"
 preserveAspectRatio="xMidYMid meet">

<g transform="translate(0.000000,512.000000) scale(0.100000,-0.100000)"
fill="#fc8b06" stroke="none">
<path d="M853 4332 c-99 -35 -191 -127 -225 -225 -23 -68 -23 -187 0 -247 l18
-45 189 -42 c187 -42 248 -58 312 -84 32 -13 34 -12 74 26 55 53 84 101 104
170 49 167 -31 345 -190 428 -78 40 -200 48 -282 19z"/>
<path d="M2330 4151 c-220 -6 -250 -9 -290 -28 -107 -50 -128 -76 -276 -345
-99 -183 -109 -197 -125 -182 -28 25 -86 28 -185 9 -52 -11 -94 -21 -94 -25 0
-3 70 -40 155 -83 l155 -77 10 26 c6 14 10 32 10 39 0 16 275 520 298 548 14
15 39 17 250 17 225 0 237 1 258 21 53 50 156 29 168 -33 l6 -33 277 3 c153 2
469 -1 703 -5 l425 -9 43 -24 c51 -29 41 -12 325 -530 260 -476 244 -442 223
-474 l-16 -26 -979 0 -979 0 -6 -24 c-3 -14 -20 -30 -40 -40 -30 -14 -103 -16
-645 -16 l-611 0 -12 24 c-9 21 -4 36 36 110 25 47 46 88 46 91 0 3 -63 36
-140 75 l-139 70 -11 -43 c-6 -23 -13 -50 -16 -59 -2 -10 -7 -27 -10 -38 -5
-19 -1 -20 110 -20 64 0 116 -3 116 -6 0 -4 -43 -84 -95 -178 -103 -189 -151
-314 -161 -424 l-7 -70 186 -206 c147 -163 188 -215 201 -253 14 -42 27 -278
36 -626 0 -4 744 -6 1653 -5 1582 3 1654 4 1700 22 66 25 149 104 178 168 24
53 24 54 27 488 2 273 -1 461 -8 505 -18 116 -55 211 -159 400 l-99 180 129 3
129 3 17 32 c13 23 18 55 18 119 0 72 -3 91 -21 115 l-21 28 -209 3 -209 2
-170 311 c-174 319 -211 373 -275 414 -89 56 -82 56 -890 59 -410 2 -855 1
-990 -3z m-482 -1542 c132 -61 247 -122 260 -135 40 -45 22 -123 -34 -144 -15
-6 -121 -4 -287 6 -293 17 -324 25 -372 89 -30 38 -44 117 -31 169 9 35 64 96
101 112 72 32 111 22 363 -97z m2897 77 c108 -83 93 -257 -27 -314 -36 -17
-83 -23 -311 -36 -168 -10 -274 -13 -285 -7 -59 32 -75 103 -31 146 13 13 130
74 259 135 230 109 236 111 296 108 49 -3 69 -10 99 -32z m-1071 -922 c3 -9 6
-64 6 -124 0 -79 -4 -111 -14 -119 -9 -8 -169 -10 -577 -9 l-564 3 -3 119 c-1
66 0 126 2 133 4 10 115 13 575 13 509 0 569 -2 575 -16z"/>
<path d="M2533 4052 c-9 -6 -14 -84 -19 -287 l-7 -280 25 -37 c47 -69 44 -165
-7 -226 -23 -27 -25 -38 -25 -123 l0 -94 76 0 76 0 -6 175 c-3 96 -9 328 -12
515 -4 202 -10 345 -16 353 -11 13 -66 16 -85 4z"/>
<path d="M1852 3725 c-89 -162 -162 -298 -162 -303 0 -12 47 -3 58 12 5 6 67
117 138 246 115 211 175 302 190 287 3 -3 -56 -117 -130 -253 -74 -137 -138
-258 -141 -269 -16 -49 32 32 167 282 123 227 145 263 165 263 l23 0 -29 -52
c-111 -198 -260 -482 -256 -486 7 -8 2 -17 160 276 117 215 152 272 167 272
26 0 31 11 -128 -282 -74 -138 -133 -253 -130 -256 8 -7 -3 -27 157 270 104
193 149 268 162 268 9 0 17 -4 17 -9 0 -6 -61 -123 -136 -261 -75 -138 -134
-254 -131 -257 7 -7 7 -8 161 277 104 194 137 246 154 248 12 2 22 2 22 0 0
-2 -61 -116 -135 -253 -74 -137 -132 -251 -130 -254 7 -7 5 -11 148 254 103
189 141 251 156 253 12 2 21 0 21 -3 0 -4 -59 -115 -130 -247 -72 -132 -128
-243 -125 -246 7 -7 -1 -22 146 250 114 211 137 248 157 248 12 0 22 5 22 10
0 6 -84 10 -233 10 l-233 0 -162 -295z"/>
<path d="M2347 3757 c-70 -130 -127 -238 -127 -242 0 -22 32 31 140 230 67
124 120 230 118 236 -2 6 -61 -95 -131 -224z"/>
<path d="M2860 3880 l0 -60 240 0 240 0 0 60 0 60 -240 0 -240 0 0 -60z"/>
<path d="M2387 3714 c-89 -165 -109 -207 -89 -189 19 18 183 326 179 338 -2 6
-42 -61 -90 -149z"/>
<path d="M372 3784 c-12 -8 -26 -23 -31 -32 -20 -37 -295 -1090 -299 -1142 -3
-53 4 -71 157 -424 89 -203 161 -373 161 -379 0 -6 -80 -182 -177 -391 -166
-358 -177 -385 -178 -441 0 -75 26 -129 83 -169 48 -34 128 -45 185 -27 75 25
92 54 307 517 171 370 204 448 208 495 4 53 -1 68 -67 220 -39 89 -69 164 -67
166 2 2 89 -91 194 -206 l190 -210 6 -153 c3 -84 10 -270 14 -413 8 -240 10
-263 30 -302 59 -113 218 -142 313 -56 73 66 73 66 60 561 -12 461 -14 490
-37 534 -8 15 -124 149 -259 298 -173 190 -244 276 -241 288 3 9 51 188 106
397 55 209 102 386 105 393 3 8 81 -26 247 -109 l243 -121 60 5 c103 10 718
128 748 143 96 50 84 197 -19 233 -38 13 -60 10 -371 -48 -182 -33 -340 -61
-352 -61 -12 0 -157 68 -324 151 l-302 152 -324 73 c-179 41 -330 74 -336 74
-6 0 -21 -7 -33 -16z"/>
<path d="M2435 3683 c-21 -37 -46 -83 -56 -101 -20 -35 -26 -63 -10 -47 17 18
113 206 108 211 -3 3 -22 -25 -42 -63z"/>
<path d="M2441 3581 c-23 -45 -25 -51 -13 -51 12 0 47 78 39 86 -3 3 -15 -12
-26 -35z"/>
<path d="M2383 3123 c-10 -17 -36 -65 -58 -107 -32 -61 -45 -76 -63 -76 -22 0
-21 4 28 95 28 52 47 95 42 95 -4 0 -31 -42 -59 -92 -36 -66 -57 -94 -72 -96
-11 -2 -21 -1 -21 2 0 3 20 42 45 87 25 45 43 84 40 87 -7 7 -7 7 -60 -90 -34
-64 -52 -88 -66 -88 -10 0 -19 3 -19 7 0 3 18 40 41 81 22 40 38 76 35 79 -6
6 -32 -35 -74 -114 -20 -40 -32 -53 -50 -53 -22 0 -21 3 19 76 23 42 37 75 30
73 -6 -2 -29 -36 -50 -74 -27 -50 -44 -71 -60 -73 -21 -3 -21 -1 14 67 46 92
31 92 -19 1 -26 -49 -43 -70 -57 -70 -25 0 -24 4 11 67 32 56 34 63 23 63 -5
0 -24 -29 -42 -65 -28 -51 -40 -65 -58 -65 l-23 0 31 55 c17 31 29 58 26 62
-6 5 -20 -16 -59 -86 -10 -19 -25 -31 -38 -31 -20 0 -20 1 5 50 14 28 21 50
17 50 -5 0 -21 -22 -36 -50 -18 -33 -34 -50 -47 -50 -24 0 -24 7 1 48 22 36
24 42 12 42 -4 0 -18 -20 -31 -45 -18 -34 -30 -45 -47 -45 l-24 0 20 33 c11
17 20 36 20 41 0 16 -28 -15 -40 -44 -9 -22 -19 -30 -36 -30 -24 0 -24 0 -9
31 23 44 10 49 -16 5 -12 -21 -29 -36 -40 -36 -24 0 -24 8 1 45 21 32 25 45
12 45 -5 0 -16 -16 -25 -36 -10 -19 -22 -32 -27 -29 -13 8 -13 41 0 64 7 14 4
20 -15 29 -23 11 -26 8 -69 -70 -25 -45 -42 -86 -40 -90 3 -4 243 -8 534 -8
l528 0 -5 21 c-3 11 -12 23 -19 26 -11 4 -11 10 2 35 8 16 13 35 11 41 -2 7
-14 -7 -26 -30 -14 -29 -28 -43 -41 -43 -11 0 -20 2 -20 5 0 3 21 43 46 90 25
47 44 90 42 95 -2 6 -28 -34 -57 -89 -44 -82 -58 -101 -77 -101 -21 0 -19 6
33 101 30 55 53 103 50 106 -3 3 -14 -8 -24 -24z"/>
<path d="M2506 2955 c-34 -34 5 -59 84 -53 53 4 76 31 46 54 -26 19 -110 18
-130 -1z m110 -16 c9 -15 -14 -29 -48 -29 -28 0 -43 13 -33 30 8 14 72 13 81
-1z"/>
<path d="M4961 1261 c-70 -39 -142 -51 -303 -51 l-148 0 0 -164 c0 -136 3
-167 16 -180 13 -14 49 -16 238 -16 178 0 226 3 235 14 8 9 11 76 9 217 l-3
204 -44 -24z"/>
<path d="M1533 1068 c1 -117 -1 -150 -15 -180 l-17 -38 78 0 c46 0 82 5 89 12
8 8 12 63 12 180 l0 168 -75 0 -75 0 3 -142z"/>
</g>
</svg>
