<?xml version="1.0" standalone="no"?>
<!DOCTYPE svg PUBLIC "-//W3C//DTD SVG 20010904//EN"
 "http://www.w3.org/TR/2001/REC-SVG-20010904/DTD/svg10.dtd">
<svg version="1.0" xmlns="http://www.w3.org/2000/svg"
 width="512.000000pt" height="512.000000pt" viewBox="0 0 512.000000 512.000000"
 preserveAspectRatio="xMidYMid meet">

<g transform="translate(0.000000,512.000000) scale(0.100000,-0.100000)"
fill="#fc8b06" stroke="none">
<path d="M2496 3784 c-12 -12 -16 -37 -16 -104 l0 -88 -347 -4 c-338 -3 -349
-4 -399 -26 -28 -13 -65 -38 -82 -55 -16 -18 -98 -138 -181 -268 l-151 -236
-48 -6 c-188 -22 -364 -165 -435 -354 -21 -56 -22 -71 -25 -521 l-3 -463 25
-47 c16 -31 26 -68 28 -110 5 -71 26 -107 79 -134 30 -16 67 -18 314 -18 166
0 295 4 318 11 47 13 115 79 123 118 5 24 13 30 43 36 20 4 88 24 153 46 l116
39 236 0 236 0 0 -130 c0 -129 0 -131 25 -142 21 -9 28 -8 45 7 18 16 20 31
20 148 l0 130 233 -5 232 -5 120 -43 c115 -41 126 -43 262 -47 l142 -5 30 -47
c17 -26 48 -57 70 -69 37 -21 49 -22 330 -22 323 0 334 2 371 63 19 30 20 53
20 472 0 407 -1 443 -18 474 -19 35 -72 71 -104 71 -14 0 -18 8 -18 35 0 60
-21 138 -58 215 -70 149 -224 265 -388 293 l-68 12 -95 147 c-180 277 -216
333 -219 340 -2 5 66 8 152 8 l156 0 0 -90 c0 -71 -3 -90 -14 -90 -8 0 -22 22
-31 53 -10 28 -25 60 -33 70 -19 21 -51 19 -66 -5 -14 -23 37 -184 64 -198 24
-13 116 -13 141 0 18 10 19 23 19 171 l0 159 -26 10 c-15 6 -256 10 -615 10
l-589 0 0 83 c0 110 -30 155 -74 111z m-16 -322 c0 -41 14 -62 41 -62 28 0 49
29 49 66 l0 34 323 0 c190 0 337 -4 359 -10 21 -6 51 -22 67 -35 27 -23 317
-463 309 -470 -1 -1 -69 -23 -149 -49 l-147 -46 -381 0 -381 0 0 51 c0 61 -13
89 -43 89 -36 0 -47 -19 -47 -82 l0 -58 -381 0 -382 0 -148 47 c-82 25 -149
50 -149 54 0 20 294 459 317 474 14 10 38 21 52 25 14 5 176 9 359 9 l332 1 0
-38z m-942 -608 l173 -54 384 0 385 0 0 -185 0 -185 -317 -2 -318 -3 -3 -25
c-3 -27 189 -602 209 -626 9 -11 56 -14 220 -14 l209 0 0 -34 0 -34 -252 -4
-253 -3 -90 -34 c-158 -58 -178 -61 -550 -61 -382 0 -393 2 -427 70 -16 32
-18 74 -18 430 0 430 5 482 55 581 59 116 198 218 325 237 67 10 55 12 268
-54z m2312 35 c117 -40 204 -121 262 -245 l33 -69 3 -451 3 -452 -26 -30 c-43
-52 -63 -54 -453 -50 l-357 4 -75 28 c-162 61 -186 65 -437 65 l-233 1 0 35 0
35 190 0 190 0 35 33 c31 28 45 64 130 310 100 294 102 309 57 343 -25 20 -44
17 -155 -20 -129 -44 -237 -66 -354 -73 l-93 -6 0 227 0 226 344 0 343 0 -48
-92 c-53 -102 -59 -132 -29 -148 34 -18 52 2 118 129 l63 120 87 27 c292 91
290 91 402 53z m-745 -546 c-3 -10 -40 -117 -82 -238 -41 -121 -79 -228 -84
-237 -9 -16 -28 -18 -189 -18 l-180 0 0 204 0 203 93 7 c113 8 259 37 352 70
86 30 99 31 90 9z m1173 5 c9 -9 12 -121 12 -445 0 -425 0 -432 -20 -443 -14
-8 -108 -10 -289 -8 -248 3 -271 4 -290 22 -12 11 -21 23 -21 28 0 4 94 8 208
8 199 0 211 1 253 23 24 13 58 43 74 66 l30 43 3 359 c3 367 5 382 40 347z
m-1798 -248 l0 -250 -184 0 c-166 0 -185 2 -191 18 -4 9 -40 115 -82 235 -41
121 -77 225 -80 233 -4 12 37 14 266 14 l271 0 0 -250z m-870 -599 c0 -5 -14
-21 -31 -35 l-31 -26 -287 0 c-304 0 -311 1 -311 47 l0 23 330 0 c192 0 330
-4 330 -9z"/>
<path d="M2498 3299 c-14 -8 -18 -23 -18 -67 0 -60 11 -82 41 -82 31 0 49 29
49 79 0 65 -30 95 -72 70z"/>
<path d="M1026 2474 c-23 -23 -23 -295 0 -318 13 -14 62 -16 378 -16 268 0
365 3 374 12 29 29 12 55 -90 145 -57 49 -109 93 -115 97 -9 5 -505 95 -530
96 -1 0 -9 -7 -17 -16z m289 -119 c110 -19 203 -35 207 -35 4 0 30 -20 58 -45
l51 -45 -266 0 -265 0 0 80 c0 44 3 80 8 80 4 0 97 -16 207 -35z"/>
<path d="M3800 2549 c-196 -70 -270 -106 -347 -168 -70 -57 -163 -168 -163
-197 0 -43 14 -45 302 -42 266 3 274 4 322 27 109 54 166 144 174 273 5 89 -1
121 -28 148 -31 31 -79 23 -260 -41z m200 -94 c0 -77 -21 -126 -74 -173 -54
-48 -90 -53 -306 -50 l-195 3 40 39 c51 51 139 107 207 134 91 36 302 110 316
111 8 1 12 -18 12 -64z"/>
<path d="M3909 2014 c-37 -13 -102 -27 -145 -31 l-79 -8 0 -35 0 -35 72 -3
c41 -2 96 3 128 12 l55 14 0 -35 c0 -26 -8 -43 -34 -69 l-34 -34 -231 0 -231
0 -16 -25 c-16 -24 -16 -27 1 -45 17 -19 32 -20 245 -20 l228 0 53 28 c43 22
59 38 81 81 24 45 28 65 28 132 0 67 -3 80 -19 89 -24 12 -20 13 -102 -16z"/>
<path d="M838 3230 c-9 -6 -39 -53 -67 -105 -86 -162 -69 -195 104 -195 106 0
135 9 135 43 0 39 -19 47 -107 47 -46 0 -83 2 -83 5 0 3 14 32 30 65 l30 60
184 0 c102 0 191 3 200 6 10 4 16 18 16 35 0 22 -6 32 -26 39 -33 13 -394 12
-416 0z"/>
<path d="M3872 3158 c-18 -18 -14 -56 7 -68 11 -6 91 -10 188 -10 189 0 199
-3 233 -70 11 -22 20 -42 20 -45 0 -3 -36 -5 -79 -5 -83 0 -111 -12 -111 -49
0 -33 22 -41 118 -41 90 0 95 1 123 29 38 38 40 94 4 155 -60 103 -96 116
-318 116 -121 0 -177 -4 -185 -12z"/>
</g>
</svg>
