<?xml version="1.0" standalone="no"?>
<!DOCTYPE svg PUBLIC "-//W3C//DTD SVG 20010904//EN"
 "http://www.w3.org/TR/2001/REC-SVG-20010904/DTD/svg10.dtd">
<svg version="1.0" xmlns="http://www.w3.org/2000/svg"
 width="512.000000pt" height="512.000000pt" viewBox="0 0 512.000000 512.000000"
 preserveAspectRatio="xMidYMid meet">

<g transform="translate(0.000000,512.000000) scale(0.100000,-0.100000)"
fill="#fc8b06" stroke="none">
<path d="M2345 4259 c-887 -36 -1677 -313 -2206 -774 -98 -85 -139 -136 -139
-172 0 -35 640 -2375 659 -2408 10 -17 32 -35 54 -44 41 -15 27 -21 227 87
299 160 691 264 1185 314 171 17 699 17 870 0 493 -50 881 -153 1185 -314 205
-109 182 -100 225 -86 25 8 45 24 56 43 18 32 659 2373 659 2407 0 38 -40 86
-148 178 -125 107 -307 231 -477 324 -128 70 -170 80 -213 50 -26 -18 -412
-477 -431 -511 -6 -12 -11 -32 -11 -45 0 -13 45 -156 99 -319 l98 -297 -135
-133 c-74 -74 -132 -127 -130 -119 39 113 68 215 68 235 0 15 -78 142 -204
332 l-205 308 170 338 c178 356 189 387 151 433 -26 33 -48 41 -193 73 -378
83 -794 118 -1214 100z m605 -224 c204 -18 482 -59 548 -80 8 -3 -40 -108
-144 -317 -130 -260 -155 -317 -151 -344 3 -19 87 -154 206 -333 111 -165 201
-306 201 -313 0 -7 -45 -147 -100 -313 -92 -276 -99 -304 -89 -338 17 -64 88
-94 147 -63 15 8 174 162 354 343 247 247 330 337 338 363 9 30 -1 67 -91 337
-57 172 -97 308 -93 315 9 14 247 302 274 331 17 18 20 17 101 -29 154 -88
357 -233 418 -298 l24 -26 -289 -1061 c-159 -583 -292 -1065 -295 -1070 -3 -5
-57 15 -120 45 -294 139 -688 238 -1144 288 -162 18 -808 18 -970 0 -456 -50
-850 -149 -1144 -288 -63 -30 -117 -50 -120 -45 -3 5 -136 487 -295 1070
l-289 1061 29 31 c48 50 218 177 329 245 442 270 956 431 1565 489 189 18 600
18 800 0z"/>
<path d="M897 3389 c-31 -23 -242 -435 -252 -491 -14 -75 59 -141 129 -118 19
6 40 18 49 28 8 9 67 123 131 252 112 226 116 236 106 272 -21 73 -106 103
-163 57z"/>
<path d="M1323 3386 c-19 -16 -100 -170 -251 -472 -218 -439 -223 -450 -212
-486 21 -73 106 -102 164 -57 41 32 466 887 466 937 -1 86 -102 133 -167 78z"/>
</g>
</svg>
