<svg width="40" height="40" viewBox="0 0 40 40" fill="none" xmlns="http://www.w3.org/2000/svg">
<path d="M37.7167 25.8333L33.6833 9.75001C33.5854 9.36241 33.3514 9.02292 33.0241 8.79346C32.6967 8.564 32.2978 8.45985 31.9 8.50001C29.6667 8.73335 23.5667 9.16668 20 9.16668C16.4333 9.16668 10.3333 8.73335 8.10002 8.50001C7.70226 8.45985 7.30332 8.564 6.97595 8.79346C6.64859 9.02292 6.4146 9.36241 6.31668 9.75001L2.28335 25.8333C2.19497 26.1666 2.17649 26.5146 2.22906 26.8553C2.28162 27.1961 2.40411 27.5223 2.58881 27.8134C2.77351 28.1045 3.01643 28.3543 3.30232 28.5471C3.5882 28.7398 3.91086 28.8713 4.25002 28.9333C9.46479 29.6933 14.7304 30.0499 20 30C25.2696 30.0499 30.5352 29.6933 35.75 28.9333C36.0892 28.8713 36.4118 28.7398 36.6977 28.5471C36.9836 28.3543 37.2265 28.1045 37.4112 27.8134C37.5959 27.5223 37.7184 27.1961 37.771 26.8553C37.8235 26.5146 37.8051 26.1666 37.7167 25.8333ZM20 26.6667C15.2311 26.7115 10.4646 26.4331 5.73335 25.8333L9.16668 11.9667C11.6667 12.2 16.9333 12.5 20 12.5C23.0667 12.5 28.3333 12.2 30.8333 11.9667L34.2667 25.8333C29.5354 26.4331 24.7689 26.7115 20 26.6667Z" fill="#FC8B06"/>
</svg>
